<svg xmlns="http://www.w3.org/2000/svg" xmlns:xlink="http://www.w3.org/1999/xlink" xmlns:lucid="lucid" width="1949.12" height="902.87"><g transform="translate(-2192.5477676968035 1629.1183716570185)" lucid:page-tab-id="7OurQJPPDfW5"><path d="M1696-2592h3456V64H1696z" fill="#fff"/><path d="M2573.8-1152.77a6 6 0 0 1 6-6h1106.67a6 6 0 0 1 6 6v399.52a6 6 0 0 1-6 6H2579.8a6 6 0 0 1-6-6z" stroke="#1071e5" stroke-width="2" fill-opacity="0"/><path d="M2720.32-1007.82h154.34v154.34h-154.34v-154.34z" stroke="#fff" stroke-opacity="0" stroke-width="2" fill="#3b48cc"/><path d="M2808.65-908.53l2.86-2.94-5.88-5.8 6.6-4.93-2.48-3.3-8.52 6.38c-.1.07-.17.13-.25.22-.8.8-.77 2.1.05 2.9zM2831.55-915.53l-6.58 4.94 2.47 3.3 8.52-6.37c.5-.37.78-.9.82-1.52.04-.62-.17-1.16-.62-1.6l-7.64-7.4-2.86 2.93z" stroke="#fff" stroke-opacity="0" stroke-width="2" fill="#fff"/><path d="M2811.2-903.7l10.87-24.7 3.76 1.67-10.87 24.7-3.76-1.67z" stroke="#fff" stroke-opacity="0" stroke-width=".81" fill="#fff"/><path d="M2850.76-965.12l-5.72-4.84-9.18-7.5-2.38-2.06c-.43-.42-.87-.52-1.3-.52h-76.37c0-1.13-.85-2.06-2.04-2.06h-8.2c-1.1 0-2.06.93-2.06 2.06v20.58c0 1.13.97 2.06 2.05 2.06h8.2v76.14c0 1.13.98 2.06 2.06 2.06h22.7c1.07 0 2.05-.93 2.05-2.06v-80.26h37.05v15.13l-23.12 9.58h-1.62c-1.2 0-2.05.92-2.05 2.05v37.04c0 1.14.87 2.06 2.06 2.06h53.47c1.2 0 2.06-.92 2.06-2.06v-37.04c0-1.13-.88-2.05-2.07-2.05h-1.62l-23-9.57v-15.12h27.77c.86 0 1.62-.5 1.94-1.34.33-.82 0-1.75-.64-2.26zm-19.33-10.7l-10.6 9.57-12.74-9.67h23.33zm-52.93 10.3h-16.42l10.15-7.73 10.05 7.62zm-19.56 42.07l17.5-15.53v31.07zm16.42 20.07l-17.4 15.53v-31.07zm-17.4-24.7v-30.97l17.4 15.54zm17.62-47.84h25.7l-12.85 9.67zm29.16 2.57l10.16 7.72h-20.42zm-36.07-2.57l-12.86 9.77v-9.77zm-16.97 14.4h-4.1v-16.46h4.1v16.46zm7.24 78.2l17.5-15.43v15.43zm17.5-64.82l-15.23-13.38h15.24zm67.84 48.25h-49.37v-32.9h49.38zm-39.1-37.03l14.47-5.96 14.37 5.97zm21.06-28.8l8.32-7.52 9.3 7.62z" stroke="#fff" stroke-opacity="0" stroke-width="2" fill="#fff"/><path d="M2573.8-1158.77h60.53v60.53h-60.53v-60.53z" stroke="#fff" stroke-opacity="0" stroke-width="2" fill="#3b48cc"/><path d="M2619.8-1148.68h-31.47-.04c-2.47 0-4.4 2.02-4.4 4.44v8.91c0 2.47 2 4.4 4.43 4.4h1.2v21.8c0 .44.37.8.82.8h27.43c.45 0 .8-.37.8-.8v-21.8h1.26c2.46 0 4.4-2 4.4-4.43v-8.88-.04c0-2.46-2.02-4.4-4.44-4.4zm-2.86 38.73h-25.83v-20.98h25.84zm2.86-22.6h-31.47c-1.4 0-2.58-1-2.74-2.4h13.7v-1.63h-13.7v-7.66c-.05-1.54 1.2-2.8 2.73-2.83h31.47c1.53 0 2.83 1.2 2.83 2.75v7.74h-15.34v1.62h15.33c-.2 1.4-1.42 2.46-2.83 2.42z" stroke="#fff" stroke-opacity="0" stroke-width="2" fill="#fff"/><path d="M2594.04-1120.55l4.62 3.97 1.06-1.22-3.92-3.38 3.94-3.48-1.07-1.2-4.63 4.1c-.18.15-.28.36-.28.6s.1.45.28.6zM2609.5-1116.55l4.66-4.03c.2-.16.28-.37.28-.6 0-.25-.1-.46-.28-.62l-4.64-4.04-1.06 1.22 3.94 3.43-3.94 3.47z" stroke="#fff" stroke-opacity="0" stroke-width="2" fill="#fff"/><path d="M2600.93-1114.34l5.55-13.54 1.5.6-5.56 13.55-1.5-.6z" stroke="#fff" stroke-opacity="0" stroke-width=".76" fill="#fff"/><path d="M2601.65-1136.58h3.22v1.62h-3.22v-1.62z" stroke="#fff" stroke-opacity="0" stroke-width="2" fill="#fff"/><path d="M3129.4-1026.2h-2v-219.83h2zm0-254.4h-2v-54.42h2z" stroke="#000" stroke-width=".05"/><path d="M3128.4-1010.94l-4.64-14.26h9.27z"/><path d="M3128.4-1007.7l-6-18.5h12zm-3.26-16.5l3.26 10.03 3.26-10.03z" stroke="#000" stroke-width=".05"/><path d="M3133.03-1336.02h-9.27l4.64-14.26z"/><path d="M3134.4-1335.02h-12l6-18.5zm-9.26-2h6.52l-3.26-10.03z" stroke="#000" stroke-width=".05"/><use xlink:href="#a" transform="matrix(1,0,0,1,3096.8388930747037,-1280.6129266044666) translate(0 28.108888888888888)"/><path d="M2370.9-1041.38h162.05v48.98H2370.9z" fill="none"/><use xlink:href="#b" transform="matrix(1,0,0,1,2370.8874583681463,-1041.3798018001391) translate(6.57000000000005 20.020000000000003)"/><use xlink:href="#c" transform="matrix(1,0,0,1,2370.8874583681463,-1041.3798018001391) translate(77.14999999999999 20.020000000000003)"/><use xlink:href="#d" transform="matrix(1,0,0,1,2370.8874583681463,-1041.3798018001391) translate(30.460000000000036 43.95999999999999)"/><use xlink:href="#e" transform="matrix(1,0,0,1,2370.8874583681463,-1041.3798018001391) translate(98.67999999999999 43.95999999999999)"/><path d="M2667.88-847.48a6 6 0 0 1 6-6h245.07a6 6 0 0 1 6 6v80.82a6 6 0 0 1-6 6h-245.07a6 6 0 0 1-6-6z" stroke="#000" stroke-opacity="0" stroke-width="3" fill="#fff"/><use xlink:href="#f" transform="matrix(1,0,0,1,2672.8812897339635,-848.4807554262898) translate(7.633333333333383 40.21458333333332)"/><use xlink:href="#g" transform="matrix(1,0,0,1,2672.8812897339635,-848.4807554262898) translate(86.23333333333336 40.21458333333332)"/><use xlink:href="#h" transform="matrix(1,0,0,1,2672.8812897339635,-848.4807554262898) translate(24.49066666666667 68.43858333333333)"/><path d="M3051.23-1007.7h154.34v154.34h-154.34v-154.34z" stroke="#fff" stroke-opacity="0" stroke-width="2" fill="#3b48cc"/><path d="M3139.56-908.4l2.86-2.95-5.9-5.8 6.6-4.93-2.48-3.3-8.52 6.38c-.1.06-.16.13-.25.22-.8.8-.76 2.1.05 2.9zM3162.45-915.4l-6.58 4.93 2.47 3.3 8.52-6.38c.5-.37.78-.9.83-1.53.03-.62-.2-1.16-.64-1.6l-7.63-7.4-2.86 2.93z" stroke="#fff" stroke-opacity="0" stroke-width="2" fill="#fff"/><path d="M3142.1-903.58l10.88-24.7 3.76 1.67-10.87 24.68-3.76-1.66z" stroke="#fff" stroke-opacity="0" stroke-width=".81" fill="#fff"/><path d="M3181.67-965l-5.73-4.84-9.18-7.5-2.38-2.07c-.43-.42-.86-.52-1.3-.52h-76.36c0-1.13-.87-2.06-2.06-2.06h-8.2c-1.1 0-2.06.93-2.06 2.06v20.58c0 1.13.97 2.06 2.05 2.06h8.2v76.14c0 1.13 1 2.05 2.07 2.05h22.68c1.08 0 2.05-.9 2.05-2.04v-80.26h37.06v15.13l-23.1 9.56h-1.63c-1.2 0-2.05.92-2.05 2.05v37.04c0 1.13.86 2.05 2.05 2.05h53.47c1.2 0 2.05-.92 2.05-2.06v-37.05c0-1.13-.87-2.06-2.06-2.06h-1.62l-23-9.57v-15.13h27.75c.87 0 1.62-.5 1.95-1.34.32-.82 0-1.75-.65-2.26zm-19.34-10.7l-10.58 9.57-12.75-9.67h23.33zm-52.93 10.3h-16.42l10.16-7.73 10.04 7.62zm-19.55 42.07l17.5-15.54v31.08zm16.42 20.07l-17.4 15.53v-31.07zm-17.4-24.7v-30.97l17.4 15.54zm17.62-47.84h25.7l-12.86 9.67zm29.15 2.57l10.15 7.72h-20.4zm-36.08-2.57l-12.85 9.77v-9.77zm-16.96 14.4h-4.1v-16.46h4.1v16.46zm7.25 78.2l17.5-15.43v15.43zm17.5-64.82l-15.23-13.38h15.23zm67.84 48.25h-49.38v-32.92h49.37zm-39.12-37.04l14.48-5.98 14.37 5.97zm21.07-28.82l8.32-7.5 9.3 7.6z" stroke="#fff" stroke-opacity="0" stroke-width="2" fill="#fff"/><path d="M2798.5-1026.32h-2v-220.25h2zm0-254.83h-2v-53.87h2z" stroke="#000" stroke-width=".05"/><path d="M2797.5-1011.05l-4.64-14.27h9.27z"/><path d="M2797.5-1007.82l-6.02-18.5h12.03zm-3.26-16.5l3.25 10.03 3.25-10.02z" stroke="#000" stroke-width=".05"/><path d="M2802.13-1336.02h-9.27l4.63-14.26z"/><path d="M2803.5-1335.02h-12.02l6-18.5zm-9.26-2h6.5l-3.25-10.03z" stroke="#000" stroke-width=".05"/><use xlink:href="#i" transform="matrix(1,0,0,1,2760.2270124131037,-1281.1521404460157) translate(0 28.108888888888877)"/><path d="M2640.43-1147.4a6 6 0 0 1 6-6h315.94a6 6 0 0 1 6 6v37.8a6 6 0 0 1-6 6h-315.94a6 6 0 0 1-6-6z" stroke="#000" stroke-opacity="0" stroke-width="3" fill="#fff"/><use xlink:href="#f" transform="matrix(1,0,0,1,2645.4291218245558,-1148.4057587267644) translate(0 34.93333333333332)"/><use xlink:href="#j" transform="matrix(1,0,0,1,2645.4291218245558,-1148.4057587267644) translate(78.59999999999998 34.93333333333332)"/><path d="M2681.3-1431.83h232.4v78.3h-232.4z" fill="none"/><use xlink:href="#k" transform="matrix(1,0,0,1,2681.29378347419,-1431.8287371343858) translate(3.6666666666666856 32.43333333333333)"/><use xlink:href="#l" transform="matrix(1,0,0,1,2681.29378347419,-1431.8287371343858) translate(104.66666666666666 32.43333333333333)"/><use xlink:href="#m" transform="matrix(1,0,0,1,2681.29378347419,-1431.8287371343858) translate(35.31666666666669 72.33333333333333)"/><path d="M2996.94-847.72a6 6 0 0 1 6-6h250.92a6 6 0 0 1 6 6v80.83a6 6 0 0 1-6 6h-250.92a6 6 0 0 1-6-6z" stroke="#000" stroke-opacity="0" stroke-width="3" fill="#fff"/><use xlink:href="#f" transform="matrix(1,0,0,1,3001.940955873213,-848.7177275536374) translate(10.133333333333383 40.21458333333332)"/><use xlink:href="#g" transform="matrix(1,0,0,1,3001.940955873213,-848.7177275536374) translate(88.73333333333336 40.21458333333332)"/><use xlink:href="#n" transform="matrix(1,0,0,1,3001.940955873213,-848.7177275536374) translate(25.91333333333334 68.43858333333333)"/><path d="M2212.55-865.78h308.67v78.3h-308.67z" fill="none"/><use xlink:href="#o" transform="matrix(1,0,0,1,2212.5477676968035,-865.7776204807781) translate(101.55000000000001 32.43333333333333)"/><use xlink:href="#p" transform="matrix(1,0,0,1,2212.5477676968035,-865.7776204807781) translate(73.31666666666669 72.33333333333333)"/><path d="M2421.2-935.5l-49.24-52.07c-2.82-2.84-7.22-2.84-9.8 0l-10.83 11.12 12.85 13.5c.8-.36 1.92-.6 3.05-.6 4.73 0 8.56 4.03 8.56 9 0 1.18-.24 2.36-.57 3.3l12.5 13.14c.8-.36 2.03-.6 3.05-.6 4.73 0 8.68 4.03 8.68 9s-3.95 9.1-8.68 9.1c-4.74 0-8.57-4.13-8.57-9.1 0-1.2.24-2.37.58-3.2l-11.72-12.3v32.18c2.8 1.42 4.73 4.62 4.73 7.93 0 4.98-3.84 9-8.58 9-4.73 0-8.67-4.02-8.67-9 0-3.9 2.25-7.1 5.63-8.5v-32.8c-3.38-1.05-5.63-4.6-5.63-8.4 0-1.17.34-2.36.56-3.2l-12.72-13.48-33.7 35.98c-2.82 2.84-2.82 7.57 0 10.17l49.25 51.72c2.82 2.95 7.2 2.95 9.7 0l49.24-51.73c3.16-2.83 3.16-7.57.34-10.17z" stroke="#000" stroke-opacity="0" fill="#0078d7"/><path d="M2503.28-929.65h-79.04v-2h79.04zm198.54 0h-61.54v-2h61.54z" stroke="#000" stroke-width=".05"/><path d="M2717.1-930.65l-14.28 4.63v-9.26z"/><path d="M2720.32-930.65l-18.5 6v-12zm-16.5 3.26l10.03-3.25-10.03-3.26z" stroke="#000" stroke-width=".05"/><path d="M2424.27-929.65h-1.12l.12-.64-.1-1.35h1.1z"/><path d="M2424.3-929.63h-1.18l.13-.66-.1-1.38h1.14zm-1.1-2l.1 1.34-.12.63h1.06v-1.96z" stroke="#000" stroke-width=".05"/><use xlink:href="#q" transform="matrix(1,0,0,1,2503.283437451445,-950.6000774070047) translate(0 32.43333333333334)"/><path d="M2875.66-930.65h157.07" stroke="#000" stroke-width="2" fill="none"/><path d="M2875.7-929.65h-1.04v-2h1.03z" stroke="#000" stroke-width=".05"/><path d="M3048-930.65l-14.27 4.63v-9.26z" stroke="#000" stroke-width="2"/><path d="M3290.13-901.67h-21.56v-2h21.56zm484.3 0H3595.2v-2h179.23z" stroke="#000" stroke-width=".05"/><path d="M3268.6-901.67h-1.12l.1-1.07-.04-.93h1.05z"/><path d="M3268.62-901.64h-1.16l.1-1.1-.05-.95h1.12zm-1.05-2l.03.9-.1 1.05h1.07v-1.94z" stroke="#000" stroke-width=".05"/><path d="M3789.7-902.67l-14.27 4.64v-9.27z"/><path d="M3792.93-902.67l-18.5 6v-12zm-16.5 3.26l10.03-3.27-10.03-3.26z" stroke="#000" stroke-width=".05"/><use xlink:href="#r" transform="matrix(1,0,0,1,3290.1288888888894,-921.2866666666665) translate(0 30.271111111111104)"/><use xlink:href="#s" transform="matrix(1,0,0,1,3290.1288888888894,-921.2866666666665) translate(145.00888888888886 30.271111111111104)"/><use xlink:href="#t" transform="matrix(1,0,0,1,3290.1288888888894,-921.2866666666665) translate(189.6222222222222 30.271111111111104)"/><path d="M3314.15-893.24h269.74v67.6h-269.75z" fill-opacity="0"/><use xlink:href="#u" transform="matrix(1,0,0,1,3319.151329749932,-888.242079951748) translate(37.22222222222223 36.12222222222222)"/><use xlink:href="#v" transform="matrix(1,0,0,1,3319.151329749932,-888.242079951748) translate(150.93333333333334 36.12222222222222)"/><use xlink:href="#w" transform="matrix(1,0,0,1,3319.151329749932,-888.242079951748) translate(169.77777777777777 36.12222222222222)"/><path d="M2962.94-1047.2l38 5.16v3.05c0 4.54-17.03 8.2-38 8.2s-38-3.66-38-8.2v-3.3z" fill="#8c3123"/><path d="M2962.96-1025.2c15.85 0 29.44-2.1 35.1-5.1l1.9-2.86.74-2.63v3.27l-12.45 48.6c0 3.05-11.33 5.46-25.3 5.46-13.96 0-25.28-2.4-25.28-5.45l-12.46-48.6v-3.22l2.88 5.56c5.74 2.93 19.18 5 34.88 5z" fill="#8c3123"/><path d="M2962.95-1050.47c20.97 0 38 3.67 38 8.18 0 4.5-17.03 8.15-38 8.15s-38-3.6-38-8.14c0-4.53 17.03-8.17 38-8.17z" fill="#e05243"/><path d="M2962.94-1028.5c19.56 0 35.64-3.13 37.76-7.24l-12.46 48.6c0 3.03-11.33 5.46-25.3 5.46s-25.3-2.43-25.3-5.46l-12.45-48.6c2.1 4.1 18.2 7.24 37.74 7.24z" fill="#e05243"/><use xlink:href="#x" transform="matrix(1,0,0,1,2924.9468416327927,-978.4664424551347) translate(-4.988888888888887 21.62222222222222)"/><path d="M2797.5-1588.45c-42.6 0-77.18 35.08-77.18 78.3 0 43.4 34.58 78.32 77.17 78.32 42.74 0 77.16-35.08 77.16-78.3 0-43.4-34.4-78.32-77.17-78.32zm20.37 146.28v-13.15c0-5.33-2.94-9.87-6.95-12.85h.77c7.4-.78 13.73-3.13 13.73-3.13s9.4-2.97 14.66-9.08c5.4-6.74 6.94-16.13 6.94-16.13s1.54-10.35 0-18.65c-1.55-7.68-7.72-13.47-7.72-13.47s2-5.48 1.7-10.8c0-5.33-2.47-10.66-2.47-10.66s-4.48-.47-9.42 1.57c-5.7 2.5-12.2 7.04-12.2 7.04s-4.46-1.57-9.7-2.04c-4.8-.94-10.5-.94-10.5-.94s-5.72 0-10.66.94c-5.25.78-9.72 2.04-9.72 2.04s-6.48-4.55-12.2-7.05c-4.78-2.05-9.25-1.58-9.25-1.58s-2.47 5.33-2.47 10.65c0 5.48 1.54 10.8 1.54 10.8s-5.56 5.33-7.56 13.48c-2.15 8.3 0 18.64 0 18.64s1.1 9.38 6.8 16.12c5.4 6.1 14.66 9.08 14.66 9.08s6.48 2.35 13.74 3.13h1.23c-2.78 2.98-5.7 7.52-5.7 12.85v13.15c-28.72-8.6-49.55-35.86-49.55-67.97 0-39.16 31.33-70.8 69.9-70.8 38.6 0 70.4 31.64 70.4 70.8 0 32.1-21.15 59.36-50 67.97z" stroke="#000" stroke-opacity="0"/><path d="M2427.92-992.4h48v48h-48v-48z" stroke="#fff" stroke-opacity="0" stroke-width="2" fill="#d6242d"/><path d="M2459.17-960.23l.9-.9 7.66 7.65-.9.9-7.66-7.65zM2436.1-983.3l.9-.9 8.5 8.48-.9.9-8.5-8.5zM2438.03-955.38l4.48-4.48.9.9-4.47 4.5-.9-.92zM2460.43-977.78l4.48-4.5.9.92-4.47 4.48-.9-.9z" stroke="#fff" stroke-opacity="0" stroke-width="1.41" fill="#fff"/><path d="M2466.62-969.03c-.13-3-1-5.53-2.76-7.96l-1.04.77c1.6 2.2 2.4 4.48 2.52 7.2h-1.3v1.27h1.3c-.1 2.74-.9 5.03-2.52 7.26l1.03.74c1.78-2.45 2.65-4.98 2.77-8h1.28v-1.3zM2444.06-979.27c2.2-1.6 4.5-2.4 7.22-2.5v1.22h1.28v-1.23c2.73.12 5 .9 7.22 2.5l.78-1.03c-2.45-1.78-4.98-2.65-8-2.76v-1.33h-1.28v1.34c-3.02.1-5.55.98-8 2.75zM2459.78-957.47c-2.2 1.6-4.5 2.4-7.22 2.52v-1.3h-1.28v1.3c-2.73-.13-5-.92-7.22-2.52l-.78 1.04c2.45 1.77 4.98 2.64 8 2.75v1.28h1.28v-1.27c3.02-.12 5.55-1 8-2.76zM2440-959.76l1.02-.76c-1.6-2.2-2.4-4.5-2.52-7.24h1.3v-1.28h-1.3c.13-2.72.93-5 2.52-7.2L2440-977c-1.78 2.43-2.65 4.96-2.78 7.96h-1.27v1.28h1.28c.1 3 1 5.55 2.76 8zM2455.06-976.88c-.92-.76-1.95-1.13-3.14-1.1-2.47 0-4.48 1.74-4.48 3.9v3.12h-1.28c-.36 0-.64.3-.64.64v8.97c0 .17.07.33.2.45.1.12.26.2.44.2h11.52c.36 0 .64-.3.64-.65v-8.97c0-.17-.06-.3-.18-.43-.13-.14-.28-.2-.46-.2h-1.28v-3.13c0-1.13-.47-2.1-1.34-2.8zm-6.34 2.8c0-1.46 1.45-2.63 3.2-2.63.87-.03 1.63.23 2.3.78.58.47.9 1.1.9 1.84v3.12h-6.4zm8.32 6.34h-1.92v1.28h1.92v1.28h-1.92v1.27h1.92v1.9h-10.24v-7.68h10.24z" stroke="#fff" stroke-opacity="0" stroke-width="2" fill="#fff"/><path d="M2451.28-965.04v1.77h1.28v-1.77c.54-.2.93-.58 1.12-1.12.36-.97-.15-2.05-1.12-2.4-.97-.35-2.05.15-2.4 1.12-.36.98.15 2.05 1.12 2.4zm.64-2.44c.38 0 .7.3.7.7 0 .37-.3.68-.7.68-.37 0-.68-.3-.7-.68v-.02c.02-.38.33-.68.7-.68z" stroke="#fff" stroke-opacity="0" stroke-width="2" fill="#fff"/><path d="M2995.5-1004.47c0 .56-.43 1-1 1-.54 0-1-.44-1-1 0-.55.46-1 1-1 .57 0 1 .45 1 1zm4.4 0c0 .56-.46 1-1 1-.57 0-1-.44-1-1 0-.55.43-1 1-1 .54 0 1 .45 1 1zm4.36 0c0 .56-.45 1-1 1-.56 0-1-.44-1-1 0-.55.44-1 1-1 .55 0 1 .45 1 1zm4.37 0c0 .56-.45 1-1 1s-1-.44-1-1c0-.55.45-1 1-1s1 .45 1 1zm4.37 0c0 .56-.45 1-1 1s-1-.44-1-1c0-.55.45-1 1-1s1 .45 1 1zm4.37 0c0 .56-.45 1-1 1s-1-.44-1-1c0-.55.45-1 1-1s1 .45 1 1zm4.24 1.76c0 .54-.43 1-1 1-.54 0-1-.46-1-1 0-.56.46-1 1-1 .57 0 1 .44 1 1zm1.77 4.23c0 .56-.45 1-1 1s-1-.44-1-1c0-.55.45-1 1-1s1 .45 1 1zm0 3.75c0 .55-.45 1-1 1s-1-.45-1-1 .45-1 1-1 1 .45 1 1zm0 3.74c0 .56-.45 1-1 1s-1-.44-1-1c0-.55.45-1 1-1s1 .45 1 1zm0 3.75c0 .55-.45 1-1 1s-1-.45-1-1c0-.56.45-1 1-1s1 .44 1 1zm0 3.74c0 .56-.45 1-1 1s-1-.44-1-1c0-.54.45-1 1-1s1 .46 1 1zm0 3.76c0 .55-.45 1-1 1s-1-.45-1-1c0-.56.45-1 1-1s1 .44 1 1zm0 3.74c0 .55-.45 1-1 1s-1-.45-1-1 .45-1 1-1 1 .45 1 1zm1.76 4.24c0 .55-.45 1-1 1s-1-.45-1-1 .45-1 1-1 1 .45 1 1zm4.24 1.76c0 .55-.45 1-1 1s-1-.45-1-1 .45-1 1-1 1 .45 1 1zm4.36 0c0 .55-.45 1-1 1s-1-.45-1-1 .45-1 1-1 1 .45 1 1z"/><path d="M2994.54-1003.47h-1.28l.5-2h.78z" stroke="#000" stroke-width=".05"/><path d="M3048-970l-14.27 4.63v-9.26z" stroke="#000" stroke-width="2"/><path d="M3051.23-1586.12h154.34v154.3h-154.34v-154.3z" stroke="#000" stroke-opacity="0" fill="url(#y)"/><path d="M3147.74-1477.66c0 1.38-1.1 2.44-2.47 2.44h-33.74c-1.37 0-2.47-1.06-2.47-2.44v-13.9c-7.52-5.95-12-15.08-12-24.63 0-17.3 14-31.4 31.34-31.4 17.33 0 31.35 14.1 31.35 31.4 0 9.56-4.5 18.7-12 24.63zm-33.82-15.07v12.74h28.97v-12.73c0-.74.35-1.5 1-1.9 6.87-5 11-13.07 11-21.56 0-14.64-11.83-26.53-26.5-26.53s-26.5 11.9-26.5 26.54c0 8.5 4.13 16.57 11 21.56.65.42 1 1.17 1 1.9zm24.93 35.66c-.37.75-1.2 1.17-2.02 1.17h-16.86c-.83 0-1.65-.42-2.02-1.17l-6.05-9.65c-.46-.75-.55-1.6-.1-2.45.46-.74 1.3-1.16 2.1-1.16h29c.8 0 1.63.42 2.1 1.16.45.85.36 1.7-.1 2.45zm-5.68-75.68l-4.77 33.76-4.77-.63 4.77-33.76zm14.02 17.94l-7.25 9.65-3.85-2.87 6.14-8.17-6.14-8.16 3.85-2.98 7.24 9.66c.64.85.64 2.02 0 2.87zm-26.5 6.78l-3.85 2.87-7.24-9.66c-.64-.86-.64-2.03 0-2.88l7.25-9.66 3.85 2.97-6.14 8.18zm-2.38 42.46l3.02 4.88h14.2l2.94-4.88zm-14.77-78.87l-3.4 3.4-7.23-7.22 3.4-3.4zm60.33-3.82l-7.24 7.22-3.4-3.4 7.25-7.22zm-37.86-4.14v-9.65h4.76v9.66zm-43.46 38.65v-4.88h9.63v4.88zm82.05 0v-4.88h9.64v4.88z" stroke="#000" stroke-opacity="0" fill="#fff"/><path d="M2985.7-1431.83h285.4v78.3h-285.4z" fill="none"/><use xlink:href="#z" transform="matrix(1,0,0,1,2985.700108580235,-1431.8287371343858) translate(1.6833333333333655 32.43333333333333)"/><use xlink:href="#A" transform="matrix(1,0,0,1,2985.700108580235,-1431.8287371343858) translate(133.61666666666667 32.43333333333333)"/><use xlink:href="#B" transform="matrix(1,0,0,1,2985.700108580235,-1431.8287371343858) translate(81.83333333333336 72.33333333333333)"/><path d="M3371.85-1586.12h154.34v154.3h-154.35v-154.3z" stroke="#000" stroke-opacity="0" fill="url(#C)"/><path d="M3482.78-1491.14c0 .85-.42 1.6-1.16 2.02l-30.37 17.32c-.32.22-.74.32-1.17.32-.42 0-.85-.2-1.27-.42l-29.94-17.54c-.74-.43-1.17-1.17-1.17-2.02v-34.87c0-.85.42-1.6 1.16-2.13l30.05-17.22c.76-.42 1.6-.42 2.35 0l30.37 17.65c.74.42 1.16 1.17 1.16 2.02zm-4.77-1.38v-32.1l-27.92-16.17-27.6 15.85v32.1l27.6 16.16zm24.1-33.7v45.92c0 .85-.4 1.6-1.16 2.02l-39.07 22.54-2.45-4.15 37.9-21.78v-44.54zm-63.38-31.68l-38.02 22.43v43.05h-4.77v-44.43c0-.86.42-1.7 1.16-2.13l39.18-23.07zm3.18 60.7l11.26-25.1 4.46 2.03-11.26 25.1zm-.2-17.76l-6.38 4.58 5.52 5.63-3.4 3.4-7.53-7.55c-.42-.53-.74-1.27-.63-1.9 0-.75.42-1.4.95-1.82l8.6-6.27zm16.13 9.9l6.27-4.58-5.53-5.53 3.4-3.4 7.54 7.55c.44.53.76 1.17.65 1.9 0 .75-.43 1.4-.96 1.7l-8.5 6.28z" stroke="#000" stroke-opacity="0" fill="#fff"/><path d="M3306.32-1431.83h285.4v78.3h-285.4z" fill="none"/><use xlink:href="#D" transform="matrix(1,0,0,1,3306.3181008110178,-1431.8287371343858) translate(7.9833333333333485 51.983333333333334)"/><use xlink:href="#E" transform="matrix(1,0,0,1,3306.3181008110178,-1431.8287371343858) translate(86.58333333333334 51.983333333333334)"/><path d="M3297.9-965.17h-91.33v-2h91.34zM3450-984.8h-2v-257.9h2zm0-292.5h-2V-1335h2z" stroke="#000" stroke-width=".05"/><path d="M3206.6-965.17h-1.03v-2h1.02z"/><path d="M3206.62-965.14h-1.08v-2.05h1.08zm-1.03-2v1.95h.97v-1.94z" stroke="#000" stroke-width=".05"/><path d="M3453.64-1336.02h-9.28l4.64-14.26z"/><path d="M3455-1335.02h-12l6-18.5zm-9.26-2h6.52l-3.26-10.03z" stroke="#000" stroke-width=".05"/><use xlink:href="#F" transform="matrix(1,0,0,1,3297.9111111111115,-984.7866666666665) translate(0 30.271111111111104)"/><use xlink:href="#G" transform="matrix(1,0,0,1,3297.9111111111115,-984.7866666666665) translate(145.00888888888886 30.271111111111104)"/><use xlink:href="#H" transform="matrix(1,0,0,1,3297.9111111111115,-984.7866666666665) translate(171.3911111111111 30.271111111111104)"/><use xlink:href="#I" transform="matrix(1,0,0,1,3287.5544444444445,-1277.29) translate(0 28.108888888888888)"/><use xlink:href="#J" transform="matrix(1,0,0,1,3287.5544444444445,-1277.29) translate(106.68666666666667 28.108888888888888)"/><use xlink:href="#K" transform="matrix(1,0,0,1,3287.5544444444445,-1277.29) translate(224.8711111111111 28.108888888888888)"/><path d="M3714.07-874h312v86.53h-312z" fill="none"/><use xlink:href="#z" transform="matrix(1,0,0,1,3714.0703450010797,-873.9890611359315) translate(38.4666666666667 36.03333333333333)"/><use xlink:href="#L" transform="matrix(1,0,0,1,3714.0703450010797,-873.9890611359315) translate(170.4 36.03333333333333)"/><use xlink:href="#M" transform="matrix(1,0,0,1,3714.0703450010797,-873.9890611359315) translate(8.783333333333388 75.93333333333334)"/><use xlink:href="#N" transform="matrix(1,0,0,1,3714.0703450010797,-873.9890611359315) translate(195.98333333333332 75.93333333333334)"/><path d="M4119-905.17h-98.56c-1.13 0-2.16-1-2.16-2.15v-47.97h4.42v45.75h94.05v-63.05h-59.78v-4.38H4119c1.14 0 2.17 1 2.17 2.15v67.5c0 1.16-1.03 2.16-2.16 2.16z" stroke="#fff" stroke-opacity="0" fill="#3b48cc"/><path d="M4069.7-931.75c-.48 0-.95-.18-1.34-.5l-26.46-21.97 2.83-3.35 24.96 20.8 47.88-39.73 2.83 3.36-49.22 40.9c-.47.3-.94.5-1.5.5z" stroke="#fff" stroke-opacity="0" fill="#3b48cc"/><path d="M4076.94-939.42l2.83-3.34 40.6 33.74-2.82 3.34-40.6-33.75z" stroke="#fff" stroke-opacity="0" stroke-width=".64" fill="#3b48cc"/><path d="M4019.08-909.02l40.6-33.75 2.83 3.33-40.6 33.76-2.82-3.34z" stroke="#fff" stroke-opacity="0" stroke-width=".77" fill="#3b48cc"/><path d="M4034-961.88c2.18-.04 4-.37 6.03-1.16v3.78c-2.17 1.04-4.18 1.5-6.6 1.46h.02c-2.8.07-5.24-.53-7.67-1.95-2.24-1.34-3.8-3.1-4.84-5.46-1.22-2.85-1.75-5.5-1.68-8.57-.07-4.08.72-7.6 2.53-11.22 1.57-3.24 3.68-5.6 6.7-7.54 2.87-1.83 5.8-2.7 9.22-2.66 2.84-.07 5.3.5 7.8 1.84 2.24 1.23 3.82 2.87 4.98 5.2 1.2 2.65 1.74 5.12 1.68 8.03.03 2.62-.37 4.86-1.32 7.3-.73 1.98-1.78 3.5-3.4 4.9-1.34 1.15-2.86 1.7-4.67 1.7-.96.05-1.82-.17-2.67-.6-.8-.4-1.4-.96-1.85-1.7-.72.78-1.44 1.3-2.4 1.75-.82.45-1.6.67-2.53.7-1.68.1-3.13-.66-4.05-2-1.1-1.88-1.52-3.7-1.4-5.84-.02-2.32.34-4.34 1.13-6.54.6-1.84 1.48-3.3 2.87-4.72 1-1.04 2.2-1.57 3.62-1.64 1.64.04 3.03.82 3.92 2.17l.46-1.53h4l-1.8 13.34c-.03.42-.03.8 0 1.2-.03.45.07.86.36 1.24.24.3.56.44.93.44.94-.1 1.73-.63 2.2-1.5.78-1.2 1.3-2.3 1.6-3.73.43-1.67.63-3.13.6-4.9.23-3.06-.63-5.8-2.6-8.22-2.1-2.05-4.68-3-7.64-2.8-2.63 0-4.87.75-6.98 2.32-2.2 1.68-3.72 3.62-4.77 6.2-1.2 2.92-1.74 5.58-1.67 8.75-.2 3.33.66 6.2 2.63 8.9 1.88 2.14 4.38 3.22 7.24 3.07zm1.32-8.15c.9-.04 1.65-.4 2.2-1.1v-.73c-.03-.56-.03-1 0-1.57l1.2-8.72c-.6-.45-1.23-.7-1.95-.75-1.05 0-1.9.8-2.63 2.4-.83 2.02-1.16 3.9-1.06 6.1.1 2.9.8 4.37 2.24 4.37z" stroke="#fff" stroke-opacity="0" fill="#3b48cc"/><path d="M4019.43-975.83h99.13v68.06h-99.13v-68.06z" stroke="#fff" stroke-opacity="0" stroke-width=".87" fill="#fff" fill-opacity="0"/><path d="M4036.68-992.7c7.9 0 14.28 6.3 14.28 14.02 0 7.74-6.4 14-14.28 14-7.88 0-14.27-6.26-14.27-14 0-7.73 6.4-14 14.28-14z" stroke="#fff" stroke-opacity="0" stroke-width=".38" fill="#fff" fill-opacity="0"/><g><use xlink:href="#O" transform="matrix(1,0,0,1,3988.279503702901,-896.1662766522968) translate(39.48333333333334 32.43333333333333)"/></g><path d="M3792.93-1027.33h154.3v154.3h-154.3v-154.3z" stroke="#fff" stroke-opacity="0" stroke-width="2" fill="#cc2264"/><path d="M3905.2-922.57v1.1c-.03-.4-.03-.72 0-1.1zM3878.2-963.55l-.2.4c.08-.15.14-.27.18-.42z" stroke="#fff" stroke-opacity="0" stroke-width="2" fill="#fff"/><path d="M3860.37-970.7c-1.83 0-18-.13-18 5.98 0 .38.06.76.2 1.13.04.15.12.3.2.44l11.2 24.7v12.75c0 1.3.53 2.06 1.65 2.06h.54c2.74-.7 4.9-1.84 7.06-3.63l1.37-1c.6-.36.93-.97.96-1.73v-8.42l12.43-24.7c.1-.1.13-.23.17-.37.14-.37.22-.75.22-1.12 0-6.2-16.2-6.07-18.03-6.07zm0 3.77c7.24 0 11.93 1.32 13.48 2.2-1.55.9-6.16 2.18-13.48 2.18-7.34 0-11.92-1.27-13.47-2.17 1.6-.9 6.2-2.2 13.47-2.2zm1.48 26.77V-930.8l-.8.52c-1.14.66-2.2 1.13-3.38 1.74v-10.35c0-.27-.03-.5-.14-.8l-8.76-20.03c4 .9 7.5 1.27 11.6 1.27 4 0 7.35-.33 11.28-1.18z" stroke="#fff" stroke-opacity="0" stroke-width="2" fill="#fff"/><path d="M3897.84-913.83c-8.4 6.12-17.3 8.98-27.67 8.88-22.36 0-41.46-14.5-46-36 4.28-.2 7.7-3.05 8.65-7.2h10.45V-952h-10.45c-.85-4.23-4.28-7.2-8.56-7.5 6.25-25.33 31.86-40.8 57.22-34.6 5.9 1.48 10.62 3.65 15.6 7.1l2.3-3.25c-5.9-4.15-11.65-6.6-18.68-8.1-27.75-5.8-55.07 12.04-60.9 39.85-2.05.9-3.5 2.37-4.45 4.44-2.14 4.63-.17 10.16 4.45 12.23 5.06 24.16 25.7 41.02 50.37 41.02 11.22 0 20.8-3.07 29.98-9.67zm-79.24-36.4c0-2.55 1.97-4.82 4.54-5.1h.7c2.82 0 5.13 2.25 5.13 5.1 0 2.87-2.3 5.14-5.14 5.14-2.83.1-5.14-2.26-5.14-5.02v-.1z" stroke="#fff" stroke-opacity="0" stroke-width="2" fill="#fff"/><path d="M3916.36-940.92c4.44 0 8.14-2.97 9.07-7.38 1.07-4.95-2.14-9.9-7.16-10.96-4.98-1.06-9.9 2.13-10.97 7.15h-10.68v-25.4h5.56c.5 3.87 3.22 6.84 7.07 7.75 4.97 1.22 9.94-1.9 11.1-6.92 1.18-4.95-1.94-9.9-6.9-11.1-4.98-1.15-9.95 1.97-11.12 6.9l-7.56-.06c-.2-.08-.34-.08-.5-.08-.96.07-1.64.9-1.55 1.82v27h-15.84v3.8h15.84v26.93c0 1.14.88 2.05 2.05 2.05h6.43c.8 3.73 3.5 6.54 7.27 7.3 5.02 1 9.9-2.28 10.92-7.3.96-5.02-2.26-9.9-7.28-10.88-5.02-1-9.9 2.2-10.9 7.23h-4.5l-.1-25.33h10.68c.88 4.4 4.58 7.46 9.06 7.46zm0-14.38c2.83 0 5.12 2.28 5.12 5.1 0 2.9-2.3 5.17-5.12 5.17-2.82 0-5.16-2.28-5.16-5.18 0-2.82 2.34-5.1 5.16-5.1zm-5.16-28.68c2.82.08 5.12 2.36 5.12 5.18 0 2.8-2.3 5.1-5.12 5.1-2.83 0-5.12-2.3-5.12-5.1v-.08c0-2.8 2.3-5.1 5.12-5.1h.05zm-1.03 57.43c2.88 0 5.17 2.28 5.17 5.17.05 2.82-2.3 5.1-5.12 5.17-2.63 0-4.77-1.9-5.12-4.57v-.6c0-.4.05-.7.15-1.07.5-2.36 2.5-4.03 4.92-4.1z" stroke="#fff" stroke-opacity="0" stroke-width="2" fill="#fff"/><path d="M4070.43-986.68l.3.7-.3.72-.7.3-.7-.3-.3-.7.3-.72.7-.3zm0-8.03l.3.7-.3.7-.7.3-.7-.3-.3-.7.3-.7.7-.3zm0-8.03l.3.7-.3.7-.7.3-.7-.3-.3-.7.3-.7.7-.3zm0-8.03l.3.7-.3.7-.7.3-.7-.3-.3-.7.3-.7.7-.3zm0-8.03l.3.72-.3.7-.7.3-.7-.3-.3-.7.3-.7.7-.3zm0-8.02l.3.7-.3.72-.7.3-.7-.3-.3-.7.3-.72.7-.3zm0-8.02l.3.7-.3.7-.7.3-.7-.3-.3-.7.3-.7.7-.3zm0-8.03l.3.7-.3.72-.7.3-.7-.3-.3-.7.3-.72.7-.3zm0-8.03l.3.7-.3.72-.7.3-.7-.3-.3-.7.3-.72.7-.3zm0-8.02l.3.7-.3.7-.7.3-.7-.3-.3-.7.3-.7.7-.3zm0-8.03l.3.7-.3.7-.7.3-.7-.3-.3-.7.3-.7.7-.3zm0-8.03l.3.7-.3.72-.7.3-.7-.3-.3-.7.3-.72.7-.3zm0-8.03l.3.7-.3.7-.7.3-.7-.3-.3-.7.3-.7.7-.3zm0-8.03l.3.7-.3.7-.7.3-.7-.3-.3-.7.3-.7.7-.3zm0-8.03l.3.7-.3.7-.7.3-.7-.3-.3-.7.3-.7.7-.3zm0-8.03l.3.72-.3.7-.7.3-.7-.3-.3-.7.3-.7.7-.3zm0-8l.3.7-.3.7-.7.3-.7-.3-.3-.7.3-.7.7-.3zm0-8.04l.3.7-.3.7-.7.3-.7-.3-.3-.7.3-.7.7-.3zm0-8.03l.3.7-.3.72-.7.3-.7-.3-.3-.7.3-.72.7-.3zm0-8.02l.3.7-.3.72-.7.3-.7-.3-.3-.7.3-.7.7-.3zm0-8.02l.3.7-.3.7-.7.3-.7-.3-.3-.7.3-.7.7-.3zm0-8.03l.3.7-.3.7-.7.3-.7-.3-.3-.7.3-.7.7-.3zm0-8.03l.3.7-.3.72-.7.3-.7-.3-.3-.7.3-.72.7-.3zm0-8.02l.3.7-.3.7-.7.3-.7-.3-.3-.7.3-.7.7-.3zm0-8.03l.3.7-.3.7-.7.3-.7-.3-.3-.7.3-.7.7-.3zm0-8.03l.3.7-.3.72-.7.3-.7-.3-.3-.7.3-.72.7-.3zm0-8.03l.3.72-.3.7-.7.3-.7-.3-.3-.7.3-.7.7-.3zm0-8l.3.7-.3.7-.7.3-.7-.3-.3-.7.3-.7.7-.3zm0-8.04l.3.7-.3.7-.7.3-.7-.3-.3-.7.3-.7.7-.3zm0-8.03l.3.7-.3.72-.7.3-.7-.3-.3-.7.3-.72.7-.3zm0-8.02l.3.7-.3.72-.7.3-.7-.3-.3-.7.3-.7.7-.3zm0-8.02l.3.7-.3.7-.7.3-.7-.3-.3-.7.3-.7.7-.3zm0-8.03l.3.7-.3.72-.7.3-.7-.3-.3-.7.3-.72.7-.3zm0-8.03l.3.7-.3.72-.7.3-.7-.3-.3-.7.3-.72.7-.3zm0-8.02l.3.7-.3.7-.7.3-.7-.3-.3-.7.3-.7.7-.3zm0-8.03l.3.7-.3.7-.7.3-.7-.3-.3-.7.3-.7.7-.3zm0-8.03l.3.7-.3.72-.7.3-.7-.3-.3-.7.3-.72.7-.3zm0-40.13l.3.7-.3.72-.7.3-.7-.3-.3-.7.3-.7.7-.3zm0-8.02l.3.7-.3.7-.7.3-.7-.3-.3-.7.3-.7.7-.3zm0-8.03l.3.7-.3.72-.7.3-.7-.3-.3-.7.3-.72.7-.3zm0-8.02l.3.7-.3.7-.7.3-.7-.3-.3-.7.3-.7.7-.3zm0-8.03l.3.7-.3.7-.7.3-.7-.3-.3-.7.3-.7.7-.3zm0-8.03l.3.7-.3.7-.7.3-.7-.3-.3-.7.3-.7.7-.3zm0-8.03l.3.7-.3.72-.7.3-.7-.3-.3-.7.3-.72.7-.3zm0-8.02l.3.7-.3.7-.7.3-.7-.3-.3-.7.3-.7.7-.3zm0-8.03l.3.7-.3.7-.7.3-.7-.3-.3-.7.3-.7.7-.3zm0-8.04l.3.7-.3.72-.7.3-.7-.3-.3-.7.3-.72.7-.3zm0-8.03l.3.7-.3.72-.7.3-.7-.3-.3-.7.3-.72.7-.3zm0-8.02l.3.7-.3.72-.7.3-.7-.3-.3-.7.3-.7.7-.3zm0-8.02l.3.7-.3.72-.7.3-.7-.3-.3-.7.3-.72.7-.3zm0-8.03l.3.7-.3.72-.7.3-.7-.3-.3-.7.3-.72.7-.3zm0-8.02l.3.7-.3.7-.7.3-.7-.3-.3-.7.3-.7.7-.3zm0-8.03l.3.7-.3.7-.7.3-.7-.3-.3-.7.3-.7.7-.3zm0-8.03l.3.7-.3.72-.7.28-.7-.3-.3-.7.3-.7.7-.3zm0-8.03l.3.7-.3.72-.7.3-.7-.3-.3-.7.3-.72.7-.3zm0-8.02l.3.7-.3.7-.7.3-.7-.3-.3-.7.3-.7.7-.3zm0-8.03l.3.7-.3.7-.7.3-.7-.3-.3-.7.3-.7.7-.3zm0-8.04l.3.7-.3.72-.7.3-.7-.3-.3-.7.3-.72.7-.3zm0-8.02l.3.7-.3.7-.7.3-.7-.3-.3-.7.3-.7.7-.3zm0-8.03l.3.72-.3.7-.7.3-.7-.3-.3-.7.3-.7.7-.3zm0-8.02l.3.7-.3.72-.7.3-.7-.3-.3-.7.3-.72.7-.3zm0-8.02l.3.7-.3.7-.7.3-.7-.3-.3-.7.3-.7.7-.3zm0-8.03l.3.7-.3.7-.7.3-.7-.3-.3-.7.3-.7.7-.3zm0-8.03l.3.7-.3.7-.7.3-.7-.3-.3-.7.3-.7.7-.3zm0-8.03l.3.7-.3.72-.7.28-.7-.3-.3-.7.3-.7.7-.3zm0-8.02l.3.7-.3.7-.7.3-.7-.3-.3-.7.3-.7.7-.3zm0-8.03l.3.7-.3.7-.7.3-.7-.3-.3-.7.3-.7.7-.3zm0-8.03l.3.7-.3.7-.7.3-.7-.3-.3-.7.3-.7.7-.3zm0-8.04l.3.7-.3.72-.7.3-.7-.3-.3-.7.3-.7.7-.3zm0-8.02l.3.7-.3.7-.7.3-.7-.3-.3-.7.3-.7.7-.3zm0-8.03l.3.72-.3.7-.7.3-.7-.3-.3-.7.3-.7.7-.3zm-941.32-7.13l.3.7-.3.72-.7.28-.7-.3-.3-.7.3-.7.7-.3zm941.33-.9l.3.72-.3.7-.7.3-.7-.3-.3-.7.3-.72.7-.3zm-941.32-7.35l.3.7-.3.72-.7.3-.7-.3-.3-.7.3-.72.7-.3zm941.33-.66l.3.7-.3.7-.7.3-.7-.3-.3-.7.3-.7.7-.3zm-941.32-7.6l.3.72-.3.7-.7.3-.7-.3-.3-.7.3-.7.7-.3zm941.33-.43l.3.7-.3.7-.7.3-.7-.3-.3-.7.3-.7.7-.3zm-941.32-7.8l.3.7-.3.7-.7.3-.7-.3-.3-.7.3-.7.7-.3zm941.33-.23l.3.7-.3.72-.7.3-.7-.3-.3-.7.3-.72.7-.3zm-941.32-8.03l.3.7-.3.72-.7.28-.7-.3-.3-.7.3-.7.7-.3zm941.33 0l.3.7-.3.72-.7.28-.7-.3-.3-.7.3-.7.7-.3zm-935.32-6l.3.7-.3.72-.7.28-.7-.3-.3-.7.3-.7.7-.3zm8.02 0l.3.7-.3.72-.7.28-.72-.3-.3-.7.3-.7.7-.3zm8 0l.3.7-.3.72-.7.28-.7-.3-.3-.7.3-.7.7-.3zm8.02 0l.3.7-.3.72-.7.28-.7-.3-.3-.7.3-.7.7-.3zm8 0l.3.7-.3.72-.7.28-.7-.3-.3-.7.3-.7.7-.3zm8.02 0l.3.7-.3.72-.7.28-.7-.3-.3-.7.3-.7.7-.3zm8.02 0l.3.7-.3.72-.7.28-.72-.3-.3-.7.3-.7.7-.3zm8 0l.3.7-.3.72-.7.28-.7-.3-.3-.7.3-.7.7-.3zm8.02 0l.3.7-.3.72-.7.28-.72-.3-.3-.7.3-.7.7-.3zm8 0l.3.7-.3.72-.7.28-.7-.3-.3-.7.3-.7.7-.3zm8.02 0l.3.7-.3.72-.7.28-.7-.3-.3-.7.3-.7.7-.3zm8 0l.3.7-.3.72-.7.28-.7-.3-.3-.7.3-.7.7-.3zm8.02 0l.3.7-.3.72-.7.28-.7-.3-.3-.7.3-.7.7-.3zm8.02 0l.3.7-.3.72-.7.28-.72-.3-.3-.7.3-.7.7-.3zm8 0l.3.7-.3.72-.7.28-.7-.3-.3-.7.3-.7.7-.3zm8.02 0l.3.7-.3.72-.7.28-.72-.3-.3-.7.3-.7.7-.3zm8 0l.3.7-.3.72-.7.28-.7-.3-.3-.7.3-.7.7-.3zm8.02 0l.3.7-.3.72-.7.28-.7-.3-.3-.7.3-.7.7-.3zm8 0l.3.7-.3.72-.7.28-.7-.3-.3-.7.3-.7.7-.3zm8.02 0l.3.7-.3.72-.7.28-.7-.3-.3-.7.3-.7.7-.3zm8.02 0l.3.7-.3.72-.7.28-.72-.3-.3-.7.3-.7.7-.3zm8 0l.3.7-.3.72-.7.28-.7-.3-.3-.7.3-.7.7-.3zm8.02 0l.3.7-.3.72-.7.28-.72-.3-.3-.7.3-.7.7-.3zm8 0l.3.7-.3.72-.7.28-.7-.3-.3-.7.3-.7.7-.3zm8.02 0l.3.7-.3.72-.7.28-.7-.3-.3-.7.3-.7.7-.3zm8 0l.3.7-.3.72-.7.28-.7-.3-.3-.7.3-.7.7-.3zm8.02 0l.3.7-.3.72-.7.28-.7-.3-.3-.7.3-.7.7-.3zm8.02 0l.3.7-.3.72-.7.28-.72-.3-.3-.7.3-.7.7-.3zm8 0l.3.7-.3.72-.7.28-.7-.3-.3-.7.3-.7.7-.3zm8.02 0l.3.7-.3.72-.7.28-.72-.3-.3-.7.3-.7.7-.3zm8 0l.3.7-.3.72-.7.28-.7-.3-.3-.7.3-.7.7-.3zm8.02 0l.3.7-.3.72-.7.28-.7-.3-.3-.7.3-.7.7-.3zm8 0l.3.7-.3.72-.7.28-.7-.3-.3-.7.3-.7.7-.3zm8.02 0l.3.7-.3.72-.7.28-.7-.3-.3-.7.3-.7.7-.3zm8.02 0l.3.7-.3.72-.7.28-.72-.3-.3-.7.3-.7.7-.3zm8 0l.3.7-.3.72-.7.28-.7-.3-.3-.7.3-.7.7-.3zm8.02 0l.3.7-.3.72-.7.28-.72-.3-.3-.7.3-.7.7-.3zm8 0l.3.7-.3.72-.7.28-.7-.3-.3-.7.3-.7.7-.3zm8.02 0l.3.7-.3.72-.7.28-.7-.3-.3-.7.3-.7.7-.3zm8 0l.3.7-.3.72-.7.28-.7-.3-.3-.7.3-.7.7-.3zm8.02 0l.3.7-.3.72-.7.28-.7-.3-.3-.7.3-.7.7-.3zm8.02 0l.3.7-.3.72-.7.28-.72-.3-.3-.7.3-.7.7-.3zm8 0l.3.7-.3.72-.7.28-.7-.3-.3-.7.3-.7.7-.3zm8.02 0l.3.7-.3.72-.7.28-.72-.3-.3-.7.3-.7.7-.3zm8 0l.3.7-.3.72-.7.28-.7-.3-.3-.7.3-.7.7-.3zm8.02 0l.3.7-.3.72-.7.28-.7-.3-.3-.7.3-.7.7-.3zm8 0l.3.7-.3.72-.7.28-.7-.3-.3-.7.3-.7.7-.3zm8.02 0l.3.7-.3.72-.7.28-.7-.3-.3-.7.3-.7.7-.3zm8.02 0l.3.7-.3.72-.7.28-.72-.3-.3-.7.3-.7.7-.3zm8 0l.3.7-.3.72-.7.28-.7-.3-.3-.7.3-.7.7-.3zm8.02 0l.3.7-.3.72-.7.28-.72-.3-.3-.7.3-.7.7-.3zm8 0l.3.7-.3.72-.7.28-.7-.3-.3-.7.3-.7.7-.3zm8.02 0l.3.7-.3.72-.7.28-.7-.3-.3-.7.3-.7.7-.3zm8 0l.3.7-.3.72-.7.28-.7-.3-.3-.7.3-.7.7-.3zm8.02 0l.3.7-.3.72-.7.28-.7-.3-.3-.7.3-.7.7-.3zm8.02 0l.3.7-.3.72-.7.28-.72-.3-.3-.7.3-.7.7-.3zm8 0l.3.7-.3.72-.7.28-.7-.3-.3-.7.3-.7.7-.3zm8.02 0l.3.7-.3.72-.7.28-.72-.3-.3-.7.3-.7.7-.3zm8 0l.3.7-.3.72-.7.28-.7-.3-.3-.7.3-.7.7-.3zm8.02 0l.3.7-.3.72-.7.28-.7-.3-.3-.7.3-.7.7-.3zm8 0l.3.7-.3.72-.7.28-.7-.3-.3-.7.3-.7.7-.3zm8.02 0l.3.7-.3.72-.7.28-.7-.3-.3-.7.3-.7.7-.3zm8.02 0l.3.7-.3.72-.7.28-.72-.3-.3-.7.3-.7.7-.3zm8 0l.3.7-.3.72-.7.28-.7-.3-.3-.7.3-.7.7-.3zm8.02 0l.3.7-.3.72-.7.28-.72-.3-.3-.7.3-.7.7-.3zm8 0l.3.7-.3.72-.7.28-.7-.3-.3-.7.3-.7.7-.3zm8.02 0l.3.7-.3.72-.7.28-.7-.3-.3-.7.3-.7.7-.3zm8 0l.3.7-.3.72-.7.28-.7-.3-.3-.7.3-.7.7-.3zm8.02 0l.3.7-.3.72-.7.28-.7-.3-.3-.7.3-.7.7-.3zm8.02 0l.3.7-.3.72-.7.28-.72-.3-.3-.7.3-.7.7-.3zm8 0l.3.7-.3.72-.7.28-.7-.3-.3-.7.3-.7.7-.3zm8.02 0l.3.7-.3.72-.7.28-.72-.3-.3-.7.3-.7.7-.3zm8 0l.3.7-.3.72-.7.28-.7-.3-.3-.7.3-.7.7-.3zm8.02 0l.3.7-.3.72-.7.28-.7-.3-.3-.7.3-.7.7-.3zm8 0l.3.7-.3.72-.7.28-.7-.3-.3-.7.3-.7.7-.3zm8.02 0l.3.7-.3.72-.7.28-.7-.3-.3-.7.3-.7.7-.3zm8.02 0l.3.7-.3.72-.7.28-.72-.3-.3-.7.3-.7.7-.3zm8 0l.3.7-.3.72-.7.28-.7-.3-.3-.7.3-.7.7-.3zm8.02 0l.3.7-.3.72-.7.28-.72-.3-.3-.7.3-.7.7-.3zm8 0l.3.7-.3.72-.7.28-.7-.3-.3-.7.3-.7.7-.3zm8.02 0l.3.7-.3.72-.7.28-.7-.3-.3-.7.3-.7.7-.3zm8 0l.3.7-.3.72-.7.28-.7-.3-.3-.7.3-.7.7-.3zm8.02 0l.3.7-.3.72-.7.28-.7-.3-.3-.7.3-.7.7-.3zm8.02 0l.3.7-.3.72-.7.28-.72-.3-.3-.7.3-.7.7-.3zm8 0l.3.7-.3.72-.7.28-.7-.3-.3-.7.3-.7.7-.3zm8.02 0l.3.7-.3.72-.7.28-.72-.3-.3-.7.3-.7.7-.3zm8 0l.3.7-.3.72-.7.28-.7-.3-.3-.7.3-.7.7-.3zm8.02 0l.3.7-.3.72-.7.28-.7-.3-.3-.7.3-.7.7-.3zm8 0l.3.7-.3.72-.7.28-.7-.3-.3-.7.3-.7.7-.3zm8.02 0l.3.7-.3.72-.7.28-.7-.3-.3-.7.3-.7.7-.3zm8.02 0l.3.7-.3.72-.7.28-.72-.3-.3-.7.3-.7.7-.3zm8 0l.3.7-.3.72-.7.28-.7-.3-.3-.7.3-.7.7-.3zm8.02 0l.3.7-.3.72-.7.28-.72-.3-.3-.7.3-.7.7-.3zm8 0l.3.7-.3.72-.7.28-.7-.3-.3-.7.3-.7.7-.3zm8.02 0l.3.7-.3.72-.7.28-.7-.3-.3-.7.3-.7.7-.3zm8 0l.3.7-.3.72-.7.28-.7-.3-.3-.7.3-.7.7-.3zm8.02 0l.3.7-.3.72-.7.28-.7-.3-.3-.7.3-.7.7-.3zm8.02 0l.3.7-.3.72-.7.28-.72-.3-.3-.7.3-.7.7-.3zm8 0l.3.7-.3.72-.7.28-.7-.3-.3-.7.3-.7.7-.3zm8.02 0l.3.7-.3.72-.7.28-.72-.3-.3-.7.3-.7.7-.3zm8 0l.3.7-.3.72-.7.28-.7-.3-.3-.7.3-.7.7-.3zm8.02 0l.3.7-.3.72-.7.28-.7-.3-.3-.7.3-.7.7-.3zm8 0l.3.7-.3.72-.7.28-.7-.3-.3-.7.3-.7.7-.3zm8.02 0l.3.7-.3.72-.7.28-.7-.3-.3-.7.3-.7.7-.3zm8.02 0l.3.7-.3.72-.7.28-.72-.3-.3-.7.3-.7.7-.3zm8 0l.3.7-.3.72-.7.28-.7-.3-.3-.7.3-.7.7-.3zm8.02 0l.3.7-.3.72-.7.28-.72-.3-.3-.7.3-.7.7-.3zm8 0l.3.7-.3.72-.7.28-.7-.3-.3-.7.3-.7.7-.3zm8.02 0l.3.7-.3.72-.7.28-.7-.3-.3-.7.3-.7.7-.3zm8 0l.3.7-.3.72-.7.28-.7-.3-.3-.7.3-.7.7-.3zm8.02 0l.3.7-.3.72-.7.28-.7-.3-.3-.7.3-.7.7-.3zm8.02 0l.3.7-.3.72-.7.28-.72-.3-.3-.7.3-.7.7-.3zm8 0l.3.7-.3.72-.7.28-.7-.3-.3-.7.3-.7.7-.3zm8.02 0l.3.7-.3.72-.7.28-.72-.3-.3-.7.3-.7.7-.3zm8 0l.3.7-.3.72-.7.28-.7-.3-.3-.7.3-.7.7-.3zm8.02 0l.3.7-.3.72-.7.28-.7-.3-.3-.7.3-.7.7-.3zm8 0l.3.7-.3.72-.7.28-.7-.3-.3-.7.3-.7.7-.3z" fill="#d6242d"/><path d="M4069.73-978.95l-7.64-12.9h15.26z" fill="#d6242d"/><path d="M4069.73-976.98l-9.4-15.88h18.78zm-5.9-13.88l5.9 9.95 5.88-9.96z" stroke="#d6242d" stroke-width=".05" fill="#d6242d"/><path d="M3129.4-1586.12h-2v-1.02h2z" fill="#d6242d"/><path d="M3129.43-1586.1h-2.05v-1.07h2.05zm-2-1.02v.98h1.95v-.98z" stroke="#d6242d" stroke-width=".05" fill="#d6242d"/><g><use xlink:href="#P" transform="matrix(1,0,0,1,4015.169051690044,-1312.7601931843353) translate(0 28.108888888888888)"/></g><path d="M2876.66-969c0 .55-.44 1-1 1-.55 0-1-.45-1-1s.45-1 1-1c.56 0 1 .45 1 1zm4.38 0c0 .55-.45 1-1 1s-1-.45-1-1 .45-1 1-1 1 .45 1 1zm4.37 0c0 .55-.44 1-1 1-.54 0-1-.45-1-1s.46-1 1-1c.56 0 1 .45 1 1zm4.38 0c0 .55-.44 1-1 1-.55 0-1-.45-1-1s.45-1 1-1c.56 0 1 .45 1 1zm4.38 0c0 .55-.45 1-1 1s-1-.45-1-1 .45-1 1-1 1 .45 1 1zm4.37 0c0 .55-.45 1-1 1s-1-.45-1-1 .45-1 1-1 1 .45 1 1zm4.25-1.76c0 .55-.45 1-1 1-.56 0-1-.45-1-1s.44-1 1-1c.55 0 1 .45 1 1zm1.75-4.24c0 .55-.45 1-1 1s-1-.45-1-1 .45-1 1-1 1 .45 1 1zm0-3.9c0 .54-.45 1-1 1s-1-.46-1-1c0-.56.45-1 1-1s1 .44 1 1zm0-3.92c0 .55-.45 1-1 1s-1-.45-1-1 .45-1 1-1 1 .45 1 1zm0-3.9c0 .54-.45 1-1 1s-1-.46-1-1c0-.57.45-1 1-1s1 .43 1 1zm0-3.92c0 .55-.45 1-1 1s-1-.45-1-1c0-.56.45-1 1-1s1 .44 1 1zm0-3.9c0 .54-.45 1-1 1s-1-.46-1-1c0-.57.45-1 1-1s1 .43 1 1zm0-3.93c0 .56-.45 1-1 1s-1-.44-1-1c0-.55.45-1 1-1s1 .45 1 1zm1.76-4.24c0 .54-.46 1-1 1-.56 0-1-.46-1-1 0-.56.44-1 1-1 .54 0 1 .44 1 1zm4.23-1.77c0 .56-.45 1-1 1s-1-.44-1-1c0-.55.45-1 1-1s1 .45 1 1z"/><path d="M2875.7-968h-1.04v-2h1.03z" stroke="#000" stroke-width=".05"/><path d="M2929.17-1004.47l-14.27 4.64v-9.27z" stroke="#000" stroke-width="2"/><path d="M3774.43-965.67H3585v-2h189.43z" stroke="#000" stroke-width=".05"/><path d="M3585.03-965.67h-.27v-2h.27z" stroke="#000" stroke-width=".05"/><path d="M3789.7-966.67l-14.27 4.64v-9.27z"/><path d="M3792.93-966.67l-18.5 6v-12zm-16.5 3.26l10.03-3.27-10.03-3.26z" stroke="#000" stroke-width=".05"/><path d="M3265.57-902.8c0 16.44-13.43 29.76-30 29.76s-30-13.32-30-29.75c0-16.42 13.43-29.74 30-29.74s30 13.32 30 29.75zm-51.22-21.03l42.43 42.08m-42.43 0l42.43-42.08" stroke="#e81313" stroke-width="4" fill-opacity="0"/><path d="M3948.22-950.18h51.56" stroke="#000" stroke-width="2" fill="none"/><path d="M3948.24-949.18h-1.02v-2h1.02z" stroke="#000" stroke-width=".05"/><path d="M4015.04-950.18l-14.26 4.63v-9.27z" stroke="#000" stroke-width="2"/><defs><path d="M219-103c92 0 173-61 120-137-52-48-184-80-221-141-18-30-31-63-31-104 5-175 184-257 369-213 32 8 61 21 86 36l-22 107c-73-41-285-74-285 50 0 73 92 84 145 111 72 37 126 79 126 175C506-61 381 14 217 17 131 17 61-1 6-36l24-109c61 28 124 42 189 42" id="Q"/><path d="M172-194c0 58 25 98 80 98 35 0 78-12 129-35l33 83c-47 36-122 63-200 63C98 16 23-65 28-182c7-186 118-335 305-344 51 0 94 9 130 28l-19 98c-33-11-66-16-101-16-105 0-175 108-171 222" id="R"/><path d="M161 15C0 18 9-219 70-336c63-120 195-226 379-178 37 8 70 17 99 28L453 0H338v-88C297-34 242 13 161 15zm232-430c-147-26-213 104-221 238-4 92 58 98 110 57 22-16 44-39 67-70" id="S"/><path d="M417-526c88-1 143 49 139 137-6 125-48 269-68 389H346c20-117 66-249 66-370 0-65-72-55-112-24-25 16-49 38-73 66L163 0H21l99-511h115l2 87c42-52 101-98 180-102" id="T"/><g id="a"><use transform="matrix(0.028888888888888888,0,0,0.028888888888888888,0,0)" xlink:href="#Q"/><use transform="matrix(0.028888888888888888,0,0,0.028888888888888888,16.06222222222222,0)" xlink:href="#R"/><use transform="matrix(0.028888888888888888,0,0,0.028888888888888888,29.206666666666663,0)" xlink:href="#S"/><use transform="matrix(0.028888888888888888,0,0,0.028888888888888888,45.75999999999999,0)" xlink:href="#T"/></g><path d="M64-104c128 45 350 74 350-80 0-100-123-111-200-145-91-41-154-75-156-186-3-199 247-230 417-157v81c-67-21-127-31-178-31-78-1-136 30-136 102 0 103 125 109 204 145 90 41 150 72 152 182C520-58 406 20 264 17 187 17 121 3 64-24v-80" id="U"/><path d="M287-522c159 0 223 130 189 290H144c3 114 53 167 168 168 53 0 106-10 161-31v71C425 2 366 15 297 15 129 15 47-82 48-254c-2-161 83-268 239-268zm106 224c9-90-26-150-111-149-91 1-132 58-138 149h249" id="V"/><path d="M151-259c-2 124 38 189 156 189 36 0 75-7 118-20v71c-39 20-83 30-134 30C130 11 47-87 48-252c-2-164 87-267 247-266 45 0 87 9 126 28v71c-38-12-75-18-112-18-117 1-156 58-158 178" id="W"/><path d="M168-432c47-51 99-89 196-76v90c-81-12-139 2-191 44V0H74v-507h83" id="X"/><path d="M205-140c-10 85 92 71 154 57v71C326 1 289 7 248 7c-95 0-142-47-142-142v-294H14v-64l95-12 15-144h81v142h150v78H205v289" id="Y"/><path d="M212-62c76 0 126-57 84-113-29-26-98-45-141-62-73-29-111-74-111-140-2-151 210-176 332-113v70c-52-17-100-25-144-25-85-6-119 54-80 106 79 63 252 57 252 199C404 29 162 47 38-23v-70c63 21 121 31 174 31" id="Z"/><g id="b"><use transform="matrix(0.019999999999999987,0,0,0.019999999999999987,0,0)" xlink:href="#U"/><use transform="matrix(0.019999999999999987,0,0,0.019999999999999987,11.399999999999991,0)" xlink:href="#V"/><use transform="matrix(0.019999999999999987,0,0,0.019999999999999987,21.97999999999998,0)" xlink:href="#W"/><use transform="matrix(0.019999999999999987,0,0,0.019999999999999987,31.199999999999974,0)" xlink:href="#X"/><use transform="matrix(0.019999999999999987,0,0,0.019999999999999987,38.45999999999997,0)" xlink:href="#V"/><use transform="matrix(0.019999999999999987,0,0,0.019999999999999987,49.039999999999964,0)" xlink:href="#Y"/><use transform="matrix(0.019999999999999987,0,0,0.019999999999999987,56.69999999999996,0)" xlink:href="#Z"/></g><path d="M662 0v-545L467-177h-93L178-546V0H84v-693h114l224 425 223-425h111V0h-94" id="aa"/><path d="M269-522c120 0 185 45 185 160V0h-82l-8-52c-41 35-98 64-166 65-92 2-157-58-156-149-2-150 172-188 318-143v-66c-1-75-31-97-108-98-57 0-115 10-176 31v-70c46-25 123-40 193-40zM141-141c0 51 30 79 81 79 45 0 91-17 138-51v-102c-35-9-70-13-106-13-75 0-113 29-113 87" id="ab"/><path d="M367-522c97 0 149 53 149 150V0h-99v-339c0-67-24-102-89-103-53 0-104 17-155 51V0H74v-507h83l10 56c63-47 130-71 200-71" id="ac"/><path d="M254 138c127 2 162-73 154-207-39 33-88 59-152 60C116-14 50-116 48-261c-3-146 73-260 210-261 60 0 112 21 157 62l8-47h83v476c1 157-88 250-244 249-63 0-120-13-173-40v-71c61 21 116 31 165 31zM149-265c0 106 38 174 136 176 41 0 82-15 123-46v-263c-36-27-71-43-129-44-87 0-130 59-130 177" id="ad"/><g id="c"><use transform="matrix(0.019999999999999987,0,0,0.019999999999999987,0,0)" xlink:href="#aa"/><use transform="matrix(0.019999999999999987,0,0,0.019999999999999987,16.79999999999999,0)" xlink:href="#ab"/><use transform="matrix(0.019999999999999987,0,0,0.019999999999999987,27.339999999999982,0)" xlink:href="#ac"/><use transform="matrix(0.019999999999999987,0,0,0.019999999999999987,39.09999999999997,0)" xlink:href="#ab"/><use transform="matrix(0.019999999999999987,0,0,0.019999999999999987,49.639999999999965,0)" xlink:href="#ad"/><use transform="matrix(0.019999999999999987,0,0,0.019999999999999987,61.23999999999996,0)" xlink:href="#V"/><use transform="matrix(0.019999999999999987,0,0,0.019999999999999987,71.81999999999995,0)" xlink:href="#X"/></g><path d="M461-625c-192 9-295 152-300 351 0 140 63 210 188 210 40 0 82-7 126-22l39-202H364l15-79h244L559-38C503-4 421 18 335 18 157 19 57-86 58-265c5-200 100-334 237-407 101-54 267-43 357 7l-15 75c-46-19-116-35-176-35" id="ae"/><path d="M269-666c1 38-33 70-71 69-34 0-55-17-55-51-1-38 33-70 71-69 34 0 55 17 55 51zM31 0l99-507h96L127 0H31" id="af"/><path d="M176-118c0 70 95 48 142 26l22 56C308-12 258 7 205 7 72 5 67-79 92-205l45-226H45l12-62 97-12 43-144h78l-28 142h147l-14 76H233c-17 94-57 219-57 313" id="ag"/><path d="M481 0l61-314H203L142 0H43l135-693h99l-58 298h339l58-298h99L580 0h-99" id="ah"/><path d="M147-127c-4 84 93 71 143 33 30-20 60-47 88-80l65-333h96L441 0h-80l6-93C323-37 257 12 171 15 37 15 39-113 65-243l52-264h96c-20 119-60 255-66 380" id="ai"/><path d="M514-344C508-120 365 52 122 2 91-5 61-14 32-27l139-713h96l-63 321c44-55 97-103 181-103 93 0 130 75 129 178zM136-73c182 47 277-91 280-258 0-75-23-112-70-112s-101 38-160 113" id="aj"/><g id="d"><use transform="matrix(0.019999999999999987,0,0,0.019999999999999987,0,0)" xlink:href="#ae"/><use transform="matrix(0.019999999999999987,0,0,0.019999999999999987,13.479999999999992,0)" xlink:href="#af"/><use transform="matrix(0.019999999999999987,0,0,0.019999999999999987,18.53999999999999,0)" xlink:href="#ag"/><use transform="matrix(0.019999999999999987,0,0,0.019999999999999987,26.259999999999984,0)" xlink:href="#ah"/><use transform="matrix(0.019999999999999987,0,0,0.019999999999999987,40.75999999999998,0)" xlink:href="#ai"/><use transform="matrix(0.019999999999999987,0,0,0.019999999999999987,52.03999999999997,0)" xlink:href="#aj"/></g><path d="M592-508c-3 161-124 237-290 240H192L140 0H43l135-693h201c127-1 216 63 213 185zm-98 5c0-118-116-115-235-111l-52 267h99c107 2 188-55 188-156" id="ak"/><path d="M459 0l-26-185H161L64 0H-40l380-693h108L563 0H459zM200-260h224l-47-338" id="al"/><path d="M176 0l119-611H80l16-82h527l-16 82H394L275 0h-99" id="am"/><g id="e"><use transform="matrix(0.019999999999999987,0,0,0.019999999999999987,0,0)" xlink:href="#ak"/><use transform="matrix(0.019999999999999987,0,0,0.019999999999999987,10.959999999999992,0)" xlink:href="#al"/><use transform="matrix(0.019999999999999987,0,0,0.019999999999999987,22.59999999999999,0)" xlink:href="#am"/></g><path d="M526 0l-64-184H177L115 0H10l256-693h110L632 0H526zM203-261h233L319-601" id="an"/><path d="M596 0L465-543 333 0H219L17-693h111l149 581 133-561h112l133 562 150-582h107L710 0H596" id="ao"/><g id="f"><use transform="matrix(0.03333333333333332,0,0,0.03333333333333332,0,0)" xlink:href="#an"/><use transform="matrix(0.03333333333333332,0,0,0.03333333333333332,19.89999999999999,0)" xlink:href="#ao"/><use transform="matrix(0.03333333333333332,0,0,0.03333333333333332,50.866666666666646,0)" xlink:href="#U"/></g><path d="M172-357c-3 186 58 280 236 280 42 0 97-8 164-25v83C518 2 460 12 397 12 174 12 63-117 64-344c-2-224 117-360 338-359 57 0 110 9 160 27v83c-61-14-110-21-148-21-173 1-239 81-242 257" id="ap"/><path d="M532-254c0 161-85 270-242 269C134 16 48-93 48-254s86-269 242-268c156-1 242 108 242 268zM290-65c94 0 141-63 141-189 0-125-47-188-141-188s-141 63-141 188c0 126 47 189 141 189" id="aq"/><path d="M48-251c0-154 67-266 216-271 57 0 108 19 153 56v-274h99V0h-82l-13-52c-38 35-94 62-160 63C116 6 48-100 48-251zm369-147c-38-27-73-43-132-44-91 0-136 63-136 188 0 123 47 185 142 185 41 0 83-15 126-46v-283" id="ar"/><path d="M567-193C568-70 468 0 339 0H84v-693h229c120-2 216 68 215 183-1 75-38 123-93 147 78 23 131 76 132 170zm-103-4c0-81-46-119-129-119H181v238h156c85 0 127-40 127-119zm-37-306c0-75-44-112-121-112H181v223h122c83 0 124-37 124-111" id="as"/><path d="M169-170c0 68 23 104 88 105 48 0 96-16 145-48v-394h99V0h-82l-11-54C346-8 282 15 217 15 122 16 69-42 70-138v-369h99v337" id="at"/><path d="M78 0v-507h99V0H78zm112-657c0 36-25 61-62 60-37 1-62-24-62-60s25-61 62-60c37-1 62 24 62 60" id="au"/><path d="M173-119c-5 48 41 48 82 41v71C164 27 74-9 74-113v-627h99v621" id="av"/><g id="g"><use transform="matrix(0.03333333333333332,0,0,0.03333333333333332,0,0)" xlink:href="#ap"/><use transform="matrix(0.03333333333333332,0,0,0.03333333333333332,20.233333333333324,0)" xlink:href="#aq"/><use transform="matrix(0.03333333333333332,0,0,0.03333333333333332,39.56666666666665,0)" xlink:href="#ar"/><use transform="matrix(0.03333333333333332,0,0,0.03333333333333332,59.233333333333306,0)" xlink:href="#V"/><use transform="matrix(0.03333333333333332,0,0,0.03333333333333332,76.86666666666663,0)" xlink:href="#as"/><use transform="matrix(0.03333333333333332,0,0,0.03333333333333332,97.29999999999995,0)" xlink:href="#at"/><use transform="matrix(0.03333333333333332,0,0,0.03333333333333332,116.46666666666661,0)" xlink:href="#au"/><use transform="matrix(0.03333333333333332,0,0,0.03333333333333332,124.96666666666661,0)" xlink:href="#av"/><use transform="matrix(0.03333333333333332,0,0,0.03333333333333332,134.4666666666666,0)" xlink:href="#ar"/></g><path d="M330-70c70-1 134-26 185-55l24 72c-57 41-136 69-227 70C149 18 56-92 58-259c1-173 86-311 194-387 98-69 247-85 358-27l-15 77c-43-18-88-27-136-27-191 10-292 155-297 354-1 121 52 198 168 199" id="aw"/><path d="M157-173c-9 58-27 94 26 102 14 0 27-2 39-6l20 57C172 24 41 15 50-90c0-21 4-48 11-83l110-567h96" id="ax"/><path d="M506-321C500-135 406 8 225 15 106 19 31-66 33-186c6-186 100-329 281-336 119-4 194 81 192 201zM131-191c-1 75 32 128 102 128 123 0 172-121 175-253 1-75-32-128-102-128-123 0-172 121-175 253" id="ay"/><path d="M398-522c100-4 145 73 126 178-18 109-44 235-64 344h-96c20-116 60-258 67-376 5-85-98-80-152-38-31 20-61 46-90 81L123 0H27l99-507h79l-5 95c49-57 110-106 198-110" id="az"/><path d="M127-180c1 81 22 120 99 122 47 0 102-17 163-50l26 59C352-5 280 17 201 17 91 17 32-54 33-167c4-157 76-267 180-327 92-53 259-40 254 85 0 52-24 97-73 135-57 48-163 77-267 94zm250-220c0-68-99-57-141-25-53 34-92 103-104 180 108-24 245-49 245-155" id="aA"/><path d="M-63 148l15-78h500l-15 78H-63" id="aB"/><path d="M43 0l135-693h423l-16 81H261l-42 215h272l-16 80H203L157-81h324L466 0H43" id="aC"/><path d="M315 0l-89-195L70 0H-39l230-263L70-507h101l81 181 145-181h108L290-259 417 0H315" id="aD"/><path d="M27 0l99-507h79l-6 98c60-79 110-114 204-98l-17 89c-91-15-138 13-197 81L123 0H27" id="aE"/><path d="M164 15C4 18 15-215 74-330c58-115 180-229 355-181 33 7 62 17 89 29L424 0h-79l6-92C307-37 249 13 164 15zm-33-181c1 60 14 100 69 102 50 0 104-36 162-109l52-261c-128-41-211 39-252 127-21 43-31 90-31 141" id="aF"/><path d="M592-511c-2 117-75 187-174 215L543 0H442L328-280H194L140 0H43l135-693h201c126-2 213 62 213 182zm-98 5c3-116-117-111-235-108l-49 255h101c105 1 180-48 183-147" id="aG"/><path d="M385-522c160-2 142 240 91 356C424-49 283 60 123-5L82 206h-95l139-713h79l-6 94c57-73 119-109 186-109zM136-71c182 47 279-91 280-262 0-73-23-110-70-110s-100 37-159 111" id="aH"/><g id="h"><use transform="matrix(0.021333333333333336,0,0,0.021333333333333336,0,0)" xlink:href="#aw"/><use transform="matrix(0.021333333333333336,0,0,0.021333333333333336,12.650666666666668,0)" xlink:href="#ax"/><use transform="matrix(0.021333333333333336,0,0,0.021333333333333336,18.688000000000002,0)" xlink:href="#ay"/><use transform="matrix(0.021333333333333336,0,0,0.021333333333333336,30.18666666666667,0)" xlink:href="#az"/><use transform="matrix(0.021333333333333336,0,0,0.021333333333333336,42.53866666666667,0)" xlink:href="#aA"/><use transform="matrix(0.021333333333333336,0,0,0.021333333333333336,52.82133333333334,0)" xlink:href="#aB"/><use transform="matrix(0.021333333333333336,0,0,0.021333333333333336,63.48800000000002,0)" xlink:href="#aC"/><use transform="matrix(0.021333333333333336,0,0,0.021333333333333336,75.37066666666668,0)" xlink:href="#aD"/><use transform="matrix(0.021333333333333336,0,0,0.021333333333333336,85.73866666666667,0)" xlink:href="#ag"/><use transform="matrix(0.021333333333333336,0,0,0.021333333333333336,93.97333333333334,0)" xlink:href="#aA"/><use transform="matrix(0.021333333333333336,0,0,0.021333333333333336,104.25600000000001,0)" xlink:href="#aE"/><use transform="matrix(0.021333333333333336,0,0,0.021333333333333336,112.12800000000001,0)" xlink:href="#az"/><use transform="matrix(0.021333333333333336,0,0,0.021333333333333336,124.48000000000002,0)" xlink:href="#aF"/><use transform="matrix(0.021333333333333336,0,0,0.021333333333333336,136.17066666666668,0)" xlink:href="#ax"/><use transform="matrix(0.021333333333333336,0,0,0.021333333333333336,142.208,0)" xlink:href="#aB"/><use transform="matrix(0.021333333333333336,0,0,0.021333333333333336,152.87466666666666,0)" xlink:href="#aG"/><use transform="matrix(0.021333333333333336,0,0,0.021333333333333336,165.56799999999998,0)" xlink:href="#aA"/><use transform="matrix(0.021333333333333336,0,0,0.021333333333333336,175.85066666666665,0)" xlink:href="#aH"/><use transform="matrix(0.021333333333333336,0,0,0.021333333333333336,187.51999999999998,0)" xlink:href="#ay"/></g><path d="M463-588c-167 7-252 134-257 306 0 119 47 178 141 178 53 0 111-18 175-55l32 104C487-9 423 17 322 19 154 20 51-95 53-266c2-173 87-307 197-382 102-69 257-84 371-24l-22 111c-44-18-89-27-136-27" id="aI"/><path d="M196-166c-11 53 21 80 70 61l29 79C260-4 218 7 169 7 43 6 40-99 64-225l100-515h142c-37 192-69 382-110 574" id="aJ"/><path d="M531-320C526-129 425 7 237 15 111 17 26-66 28-191c5-191 106-327 294-335 126-2 211 81 209 206zm-219-98c-99 0-137 110-140 220-1 56 24 105 75 105 99 0 137-110 140-220 1-56-24-105-75-105" id="aK"/><path d="M159-166c5 58 27 78 89 79 47 0 97-13 148-40l36 81C367-4 293 17 208 17 91 18 24-52 28-170c6-199 120-349 319-358 82-2 145 44 142 122-7 160-170 213-330 240zm202-220c0-52-75-45-111-18-42 31-76 83-87 147 87-18 198-40 198-129" id="aL"/><g id="i"><use transform="matrix(0.028888888888888877,0,0,0.028888888888888877,0,0)" xlink:href="#aI"/><use transform="matrix(0.028888888888888877,0,0,0.028888888888888877,17.362222222222215,0)" xlink:href="#aJ"/><use transform="matrix(0.028888888888888877,0,0,0.028888888888888877,26.664444444444435,0)" xlink:href="#aK"/><use transform="matrix(0.028888888888888877,0,0,0.028888888888888877,42.81333333333332,0)" xlink:href="#T"/><use transform="matrix(0.028888888888888877,0,0,0.028888888888888877,60.17555555555553,0)" xlink:href="#aL"/></g><path d="M556-480c2 129-90 212-221 212H183V0H84v-693h251c131-2 223 83 221 213zM326-349c84 0 127-46 127-131 0-88-42-132-127-132H183v263h143" id="aM"/><path d="M544-260c0 149-76 271-216 271-60 0-112-20-155-59v254H74v-713h83l9 52c51-45 107-67 169-67 138 1 209 115 209 262zm-101 5c0-114-32-184-136-187-47 0-92 15-134 46v279c43 32 87 48 132 48 92 0 138-62 138-186" id="aN"/><g id="j"><use transform="matrix(0.03333333333333332,0,0,0.03333333333333332,0,0)" xlink:href="#ap"/><use transform="matrix(0.03333333333333332,0,0,0.03333333333333332,20.233333333333324,0)" xlink:href="#aq"/><use transform="matrix(0.03333333333333332,0,0,0.03333333333333332,39.56666666666665,0)" xlink:href="#ar"/><use transform="matrix(0.03333333333333332,0,0,0.03333333333333332,59.233333333333306,0)" xlink:href="#V"/><use transform="matrix(0.03333333333333332,0,0,0.03333333333333332,76.86666666666663,0)" xlink:href="#aM"/><use transform="matrix(0.03333333333333332,0,0,0.03333333333333332,96.8666666666666,0)" xlink:href="#au"/><use transform="matrix(0.03333333333333332,0,0,0.03333333333333332,105.36666666666662,0)" xlink:href="#aN"/><use transform="matrix(0.03333333333333332,0,0,0.03333333333333332,125.09999999999994,0)" xlink:href="#V"/><use transform="matrix(0.03333333333333332,0,0,0.03333333333333332,142.73333333333326,0)" xlink:href="#av"/><use transform="matrix(0.03333333333333332,0,0,0.03333333333333332,152.23333333333326,0)" xlink:href="#au"/><use transform="matrix(0.03333333333333332,0,0,0.03333333333333332,160.73333333333326,0)" xlink:href="#ac"/><use transform="matrix(0.03333333333333332,0,0,0.03333333333333332,180.33333333333326,0)" xlink:href="#V"/></g><path d="M544-260c0 149-76 271-216 271-61 0-115-21-161-64L156 0H74v-740h99v281c50-42 104-63 162-63 139 1 209 114 209 262zm-101 5c0-114-32-184-136-187-47 0-92 15-134 46v279c42 32 86 48 132 48 92 0 138-62 138-186" id="aO"/><g id="k"><use transform="matrix(0.033333333333333326,0,0,0.033333333333333326,0,0)" xlink:href="#aM"/><use transform="matrix(0.033333333333333326,0,0,0.033333333333333326,19.999999999999996,0)" xlink:href="#at"/><use transform="matrix(0.033333333333333326,0,0,0.033333333333333326,39.16666666666666,0)" xlink:href="#aO"/><use transform="matrix(0.033333333333333326,0,0,0.033333333333333326,58.899999999999984,0)" xlink:href="#av"/><use transform="matrix(0.033333333333333326,0,0,0.033333333333333326,68.39999999999999,0)" xlink:href="#au"/><use transform="matrix(0.033333333333333326,0,0,0.033333333333333326,76.89999999999998,0)" xlink:href="#W"/></g><path d="M74 0v-740h99v454l215-221h121L269-266 525 0H400L173-240V0H74" id="aP"/><g id="l"><use transform="matrix(0.033333333333333326,0,0,0.033333333333333326,0,0)" xlink:href="#aM"/><use transform="matrix(0.033333333333333326,0,0,0.033333333333333326,19.666666666666668,0)" xlink:href="#ab"/><use transform="matrix(0.033333333333333326,0,0,0.033333333333333326,37.23333333333333,0)" xlink:href="#W"/><use transform="matrix(0.033333333333333326,0,0,0.033333333333333326,52.599999999999994,0)" xlink:href="#aP"/><use transform="matrix(0.033333333333333326,0,0,0.033333333333333326,70.13333333333334,0)" xlink:href="#ab"/><use transform="matrix(0.033333333333333326,0,0,0.033333333333333326,87.69999999999999,0)" xlink:href="#ad"/><use transform="matrix(0.033333333333333326,0,0,0.033333333333333326,107.03333333333333,0)" xlink:href="#V"/></g><path d="M558-488c-1 101-61 166-143 193L599 0H488L318-279H183V0H84v-693h253c129-2 222 78 221 205zm-103 1c0-83-44-125-127-125H183v252h141c85 0 131-43 131-127" id="aQ"/><path d="M211 5L7-507h106L259-92l141-415h102L271 89c-31 78-62 125-155 129-28 0-54-5-78-14v-71c38 10 90 11 116-11 23-20 43-79 57-117" id="aR"/><g id="m"><use transform="matrix(0.033333333333333326,0,0,0.033333333333333326,0,0)" xlink:href="#aQ"/><use transform="matrix(0.033333333333333326,0,0,0.033333333333333326,20.099999999999998,0)" xlink:href="#V"/><use transform="matrix(0.033333333333333326,0,0,0.033333333333333326,37.73333333333333,0)" xlink:href="#aN"/><use transform="matrix(0.033333333333333326,0,0,0.033333333333333326,57.466666666666654,0)" xlink:href="#aq"/><use transform="matrix(0.033333333333333326,0,0,0.033333333333333326,76.79999999999998,0)" xlink:href="#Z"/><use transform="matrix(0.033333333333333326,0,0,0.033333333333333326,91.19999999999997,0)" xlink:href="#au"/><use transform="matrix(0.033333333333333326,0,0,0.033333333333333326,99.69999999999997,0)" xlink:href="#Y"/><use transform="matrix(0.033333333333333326,0,0,0.033333333333333326,112.46666666666664,0)" xlink:href="#aq"/><use transform="matrix(0.033333333333333326,0,0,0.033333333333333326,131.79999999999995,0)" xlink:href="#X"/><use transform="matrix(0.033333333333333326,0,0,0.033333333333333326,145.39999999999995,0)" xlink:href="#aR"/></g><path d="M27-108c127 62 357 72 357-85 0-84-90-100-153-133-79-42-136-72-136-172 0-166 172-241 346-200 30 8 57 19 81 34l-15 74c-95-57-317-61-314 81 3 86 97 101 160 134 79 41 130 68 130 167C483-60 366 14 212 17 131 17 64 0 11-34" id="aS"/><path d="M403-51c-48 38-112 65-190 66C102 16 31-58 33-170c1-133 66-240 147-301 74-56 184-66 271-25l-14 72c-179-65-308 65-304 243 1 79 24 115 100 116 40 0 88-16 144-47" id="aT"/><path d="M217-87c66-115 147-287 197-420h99C408-267 280 5 98 159c-37 29-76 49-118 60l-43-68C46 111 77 80 149-2L46-507h101" id="aU"/><path d="M465 0L246-557 138 0H43l135-693h107l219 556 108-556h95L572 0H465" id="aV"/><path d="M62 0l84-431H53l12-62 95-12 16-82c20-147 149-201 282-145l-14 70c-45-14-109-21-140 6-33 27-35 99-47 149h156l-15 76H242L158 0H62" id="aW"/><g id="n"><use transform="matrix(0.021333333333333336,0,0,0.021333333333333336,0,0)" xlink:href="#aS"/><use transform="matrix(0.021333333333333336,0,0,0.021333333333333336,11.541333333333334,0)" xlink:href="#aA"/><use transform="matrix(0.021333333333333336,0,0,0.021333333333333336,21.824,0)" xlink:href="#aT"/><use transform="matrix(0.021333333333333336,0,0,0.021333333333333336,31.360000000000003,0)" xlink:href="#ai"/><use transform="matrix(0.021333333333333336,0,0,0.021333333333333336,43.392,0)" xlink:href="#aE"/><use transform="matrix(0.021333333333333336,0,0,0.021333333333333336,51.26400000000001,0)" xlink:href="#af"/><use transform="matrix(0.021333333333333336,0,0,0.021333333333333336,56.66133333333334,0)" xlink:href="#ag"/><use transform="matrix(0.021333333333333336,0,0,0.021333333333333336,64.896,0)" xlink:href="#aU"/><use transform="matrix(0.021333333333333336,0,0,0.021333333333333336,75.24266666666666,0)" xlink:href="#aB"/><use transform="matrix(0.021333333333333336,0,0,0.021333333333333336,85.90933333333334,0)" xlink:href="#aS"/><use transform="matrix(0.021333333333333336,0,0,0.021333333333333336,97.45066666666668,0)" xlink:href="#aT"/><use transform="matrix(0.021333333333333336,0,0,0.021333333333333336,106.98666666666668,0)" xlink:href="#aF"/><use transform="matrix(0.021333333333333336,0,0,0.021333333333333336,118.67733333333335,0)" xlink:href="#az"/><use transform="matrix(0.021333333333333336,0,0,0.021333333333333336,131.02933333333334,0)" xlink:href="#aB"/><use transform="matrix(0.021333333333333336,0,0,0.021333333333333336,141.696,0)" xlink:href="#aV"/><use transform="matrix(0.021333333333333336,0,0,0.021333333333333336,156.992,0)" xlink:href="#ay"/><use transform="matrix(0.021333333333333336,0,0,0.021333333333333336,168.49066666666667,0)" xlink:href="#ag"/><use transform="matrix(0.021333333333333336,0,0,0.021333333333333336,176.72533333333337,0)" xlink:href="#af"/><use transform="matrix(0.021333333333333336,0,0,0.021333333333333336,182.1226666666667,0)" xlink:href="#aW"/><use transform="matrix(0.021333333333333336,0,0,0.021333333333333336,190.82666666666665,0)" xlink:href="#aU"/></g><path d="M207 0L8-507h106L257-90l143-417h102L304 0h-97" id="aX"/><g id="o"><use transform="matrix(0.033333333333333326,0,0,0.033333333333333326,0,0)" xlink:href="#aM"/><use transform="matrix(0.033333333333333326,0,0,0.033333333333333326,19.999999999999996,0)" xlink:href="#X"/><use transform="matrix(0.033333333333333326,0,0,0.033333333333333326,32.43333333333332,0)" xlink:href="#au"/><use transform="matrix(0.033333333333333326,0,0,0.033333333333333326,40.93333333333332,0)" xlink:href="#aX"/><use transform="matrix(0.033333333333333326,0,0,0.033333333333333326,57.93333333333332,0)" xlink:href="#ab"/><use transform="matrix(0.033333333333333326,0,0,0.033333333333333326,75.49999999999999,0)" xlink:href="#Y"/><use transform="matrix(0.033333333333333326,0,0,0.033333333333333326,88.26666666666665,0)" xlink:href="#V"/></g><g id="p"><use transform="matrix(0.033333333333333326,0,0,0.033333333333333326,0,0)" xlink:href="#aQ"/><use transform="matrix(0.033333333333333326,0,0,0.033333333333333326,20.099999999999998,0)" xlink:href="#V"/><use transform="matrix(0.033333333333333326,0,0,0.033333333333333326,37.73333333333333,0)" xlink:href="#aN"/><use transform="matrix(0.033333333333333326,0,0,0.033333333333333326,57.466666666666654,0)" xlink:href="#aq"/><use transform="matrix(0.033333333333333326,0,0,0.033333333333333326,76.79999999999998,0)" xlink:href="#Z"/><use transform="matrix(0.033333333333333326,0,0,0.033333333333333326,91.19999999999997,0)" xlink:href="#au"/><use transform="matrix(0.033333333333333326,0,0,0.033333333333333326,99.69999999999997,0)" xlink:href="#Y"/><use transform="matrix(0.033333333333333326,0,0,0.033333333333333326,112.46666666666664,0)" xlink:href="#aq"/><use transform="matrix(0.033333333333333326,0,0,0.033333333333333326,131.79999999999995,0)" xlink:href="#X"/><use transform="matrix(0.033333333333333326,0,0,0.033333333333333326,145.39999999999995,0)" xlink:href="#aR"/></g><path fill="#1071e5" d="M803-511C748-344 646-143 560 0H424l-18-363L260 0H124L52-511h147l25 373 139-373h137l21 382c58-127 104-254 139-382h143" id="aY"/><path fill="#1071e5" d="M159-166c5 58 27 78 89 79 47 0 97-13 148-40l36 81C367-4 293 17 208 17 91 18 24-52 28-170c6-199 120-349 319-358 82-2 145 44 142 122-7 160-170 213-330 240zm202-220c0-52-75-45-111-18-42 31-76 83-87 147 87-18 198-40 198-129" id="aZ"/><path fill="#1071e5" d="M544-348C537-115 381 58 125 4 88-3 55-13 26-25l139-715h142l-58 299c39-45 90-83 163-85 95 2 133 75 132 178zm-144 20c0-47-12-84-51-87-35 0-76 30-123 89L181-95c149 25 213-98 219-233" id="ba"/><path fill="#1071e5" d="M417-526c88-1 143 49 139 137-6 125-48 269-68 389H346c20-117 66-249 66-370 0-65-72-56-112-24-25 16-49 39-74 68L163 0H21l144-740h142l-59 304c40-45 96-87 169-90" id="bb"/><path fill="#1071e5" d="M531-320C526-129 425 7 237 15 111 17 26-66 28-191c5-191 106-327 294-335 126-2 211 81 209 206zm-219-98c-99 0-137 110-140 220-1 56 24 105 75 105 99 0 137-110 140-220 1-56-24-105-75-105" id="bc"/><path fill="#1071e5" d="M21 0l144-740h140l-85 436 189-207h176L344-270 513 0H353L208-243 161 0H21" id="bd"/><g id="q"><use transform="matrix(0.03333333333333333,0,0,0.03333333333333333,0,0)" xlink:href="#aY"/><use transform="matrix(0.03333333333333333,0,0,0.03333333333333333,25.833333333333332,0)" xlink:href="#aZ"/><use transform="matrix(0.03333333333333333,0,0,0.03333333333333333,42.4,0)" xlink:href="#ba"/><use transform="matrix(0.03333333333333333,0,0,0.03333333333333333,61.46666666666667,0)" xlink:href="#bb"/><use transform="matrix(0.03333333333333333,0,0,0.03333333333333333,81.5,0)" xlink:href="#bc"/><use transform="matrix(0.03333333333333333,0,0,0.03333333333333333,100.13333333333333,0)" xlink:href="#bc"/><use transform="matrix(0.03333333333333333,0,0,0.03333333333333333,118.76666666666665,0)" xlink:href="#bd"/></g><path fill="#e81313" d="M219-103c92 0 173-61 120-137-52-48-184-80-221-141-18-30-31-63-31-104 5-175 184-257 369-213 32 8 61 21 86 36l-22 107c-73-41-285-74-285 50 0 73 92 84 145 111 72 37 126 79 126 175C506-61 381 14 217 17 131 17 61-1 6-36l24-109c61 28 124 42 189 42" id="be"/><path fill="#e81313" d="M159-166c5 58 27 78 89 79 47 0 97-13 148-40l36 81C367-4 293 17 208 17 91 18 24-52 28-170c6-199 120-349 319-358 82-2 145 44 142 122-7 160-170 213-330 240zm202-220c0-52-75-45-111-18-42 31-76 83-87 147 87-18 198-40 198-129" id="bf"/><path fill="#e81313" d="M548-511C484-345 371-148 271 0H138L48-511h149l38 382c63-119 119-246 168-382h145" id="bg"/><path fill="#e81313" d="M237-423c42-56 111-110 205-87l-26 132c-82-16-136-1-188 51L163 0H21l99-511h115" id="bh"/><path fill="#e81313" d="M312-681c1 50-45 93-96 91-46 0-75-21-75-65-1-50 45-93 96-91 46 0 75 21 75 65zM124-511h142L167 0H25" id="bi"/><path fill="#e81313" d="M218-145c0 61 82 46 125 26l30 77C340-15 279 8 222 8 74 9 59-87 86-223l36-182H43l17-88 86-16 48-140h117l-27 138h141l-21 106H264c-13 70-46 196-46 260" id="bj"/><path fill="#e81313" d="M19-122c40 17 107 32 162 32 67 3 99-34 71-76-65-52-186-74-186-192 0-166 229-208 363-132l-19 97c-31-17-86-28-133-28-55 0-103 39-65 75 61 58 186 72 186 191C398 29 140 50 0-24" id="bk"/><g id="r"><use transform="matrix(0.031111111111111103,0,0,0.031111111111111103,0,0)" xlink:href="#be"/><use transform="matrix(0.031111111111111103,0,0,0.031111111111111103,17.297777777777775,0)" xlink:href="#bf"/><use transform="matrix(0.031111111111111103,0,0,0.031111111111111103,32.75999999999999,0)" xlink:href="#bg"/><use transform="matrix(0.031111111111111103,0,0,0.031111111111111103,48.7511111111111,0)" xlink:href="#bf"/><use transform="matrix(0.031111111111111103,0,0,0.031111111111111103,64.21333333333332,0)" xlink:href="#bh"/><use transform="matrix(0.031111111111111103,0,0,0.031111111111111103,76.71999999999998,0)" xlink:href="#bi"/><use transform="matrix(0.031111111111111103,0,0,0.031111111111111103,85.74222222222221,0)" xlink:href="#bj"/><use transform="matrix(0.031111111111111103,0,0,0.031111111111111103,98.52888888888887,0)" xlink:href="#bi"/><use transform="matrix(0.031111111111111103,0,0,0.031111111111111103,107.5511111111111,0)" xlink:href="#bf"/><use transform="matrix(0.031111111111111103,0,0,0.031111111111111103,123.01333333333332,0)" xlink:href="#bk"/></g><path fill="#e81313" d="M49-101l25-132 330-117-283-118 24-124 400 188-23 114" id="bl"/><path fill="#e81313" d="M46-184l21-110h466l-21 110H46zm42-220l21-110h466l-21 110H88" id="bm"/><g id="s"><use transform="matrix(0.031111111111111103,0,0,0.031111111111111103,0,0)" xlink:href="#bl"/><use transform="matrix(0.031111111111111103,0,0,0.031111111111111103,18.231111111111108,0)" xlink:href="#bm"/></g><path fill="#e81313" d="M591 0l96-492-215 321H352l-90-324L165 0H37l135-693h159l106 389 261-389h156L719 0H591" id="bn"/><path fill="#e81313" d="M167 15C-1 20 10-211 68-332c54-114 180-234 344-179l44-229h142L453 0H338v-89C300-38 242 11 167 15zm226-430c-153-27-215 106-221 247-3 81 62 89 110 48 22-16 44-40 67-69" id="bo"/><path fill="#e81313" d="M187-146c-3 65 66 55 104 26 23-15 46-36 69-63l65-328h142L468 0H353v-89C313-36 255 12 176 15 38 20 32-110 57-239l53-272h142c-20 116-53 245-65 365" id="bp"/><path fill="#e81313" d="M725-526c138-2 147 120 121 254L793 0H651c20-117 54-248 66-369 0-32-13-49-45-49-35 0-78 25-129 75-18 114-44 231-65 343H336c20-117 57-248 66-369 5-65-68-56-106-25-23 16-45 38-68 66L163 0H21l99-511h115l2 86c39-50 97-97 173-101 72 0 120 36 132 97 42-50 104-94 183-97" id="bq"/><g id="t"><use transform="matrix(0.031111111111111103,0,0,0.031111111111111103,0,0)" xlink:href="#bn"/><use transform="matrix(0.031111111111111103,0,0,0.031111111111111103,26.693333333333328,0)" xlink:href="#bf"/><use transform="matrix(0.031111111111111103,0,0,0.031111111111111103,42.155555555555544,0)" xlink:href="#bo"/><use transform="matrix(0.031111111111111103,0,0,0.031111111111111103,59.982222222222205,0)" xlink:href="#bi"/><use transform="matrix(0.031111111111111103,0,0,0.031111111111111103,69.00444444444443,0)" xlink:href="#bp"/><use transform="matrix(0.031111111111111103,0,0,0.031111111111111103,87.26666666666665,0)" xlink:href="#bq"/></g><path fill="#d6242d" d="M84-309l15-80 459-192-18 93-358 142 303 143-17 86" id="br"/><path fill="#d6242d" d="M27-108c127 62 357 72 357-85 0-84-90-100-153-133-79-42-136-72-136-172 0-166 172-241 346-200 30 8 57 19 81 34l-15 74c-95-57-317-61-314 81 3 86 97 101 160 134 79 41 130 68 130 167C483-60 366 14 212 17 131 17 64 0 11-34" id="bs"/><path fill="#d6242d" d="M176-118c0 70 95 48 142 26l22 56C308-12 258 7 205 7 72 5 67-79 92-205l45-226H45l12-62 97-12 43-144h78l-28 142h147l-14 76H233c-17 94-57 219-57 313" id="bt"/><path fill="#d6242d" d="M506-321C500-135 406 8 225 15 106 19 31-66 33-186c6-186 100-329 281-336 119-4 194 81 192 201zM131-191c-1 75 32 128 102 128 123 0 172-121 175-253 1-75-32-128-102-128-123 0-172 121-175 253" id="bu"/><path fill="#d6242d" d="M385-522c160-2 142 240 91 356C424-49 283 60 123-5L82 206h-95l139-713h79l-6 94c57-73 119-109 186-109zM136-71c182 47 279-91 280-262 0-73-23-110-70-110s-100 37-159 111" id="bv"/><path fill="#d6242d" d="M556-216C550-72 445 0 296 0H43l135-693h216c108-2 186 58 185 163-1 88-53 146-121 172 56 22 97 69 98 142zm-100-3c1-60-40-101-100-100H201L154-75h150c90 2 153-55 152-144zm28-306c0-61-42-94-105-93H259l-44 228h140c76 1 131-58 129-135" id="bw"/><path fill="#d6242d" d="M147-127c-4 84 93 71 143 33 30-20 60-47 88-80l65-333h96L441 0h-80l6-93C323-37 257 12 171 15 37 15 39-113 65-243l52-264h96c-20 119-60 255-66 380" id="bx"/><path fill="#d6242d" d="M269-666c1 38-33 70-71 69-34 0-55-17-55-51-1-38 33-70 71-69 34 0 55 17 55 51zM31 0l99-507h96L127 0H31" id="by"/><path fill="#d6242d" d="M157-173c-9 58-27 94 26 102 14 0 27-2 39-6l20 57C172 24 41 15 50-90c0-21 4-48 11-83l110-567h96" id="bz"/><path fill="#d6242d" d="M164 15C5 19 16-213 72-330c55-116 193-242 355-171l46-239h96L424 0h-79l6-93C307-36 249 13 164 15zm-33-183c0 62 15 104 69 104 73 0 119-57 162-110l51-260c-179-48-278 100-282 266" id="bA"/><g id="u"><use transform="matrix(0.022222222222222223,0,0,0.022222222222222223,0,0)" xlink:href="#br"/><use transform="matrix(0.022222222222222223,0,0,0.022222222222222223,13.022222222222222,0)" xlink:href="#bs"/><use transform="matrix(0.022222222222222223,0,0,0.022222222222222223,25.044444444444444,0)" xlink:href="#bt"/><use transform="matrix(0.022222222222222223,0,0,0.022222222222222223,33.62222222222222,0)" xlink:href="#bu"/><use transform="matrix(0.022222222222222223,0,0,0.022222222222222223,45.599999999999994,0)" xlink:href="#bv"/><use transform="matrix(0.022222222222222223,0,0,0.022222222222222223,57.75555555555556,0)" xlink:href="#bw"/><use transform="matrix(0.022222222222222223,0,0,0.022222222222222223,71.26666666666667,0)" xlink:href="#bx"/><use transform="matrix(0.022222222222222223,0,0,0.022222222222222223,83.8,0)" xlink:href="#by"/><use transform="matrix(0.022222222222222223,0,0,0.022222222222222223,89.42222222222222,0)" xlink:href="#bz"/><use transform="matrix(0.022222222222222223,0,0,0.022222222222222223,95.71111111111111,0)" xlink:href="#bA"/></g><path fill="#d6242d" d="M345-309l-37 192h-85l37-192H77l15-78h183l37-192h85l-37 192h183l-15 78H345" id="bB"/><use transform="matrix(0.022222222222222223,0,0,0.022222222222222223,0,0)" xlink:href="#bB" id="v"/><path fill="#d6242d" d="M465 0L246-557 138 0H43l135-693h107l219 556 108-556h95L572 0H465" id="bC"/><path fill="#d6242d" d="M541-389l-15 80L67-117l18-93 358-142-303-143 17-86" id="bD"/><g id="w"><use transform="matrix(0.022222222222222223,0,0,0.022222222222222223,0,0)" xlink:href="#bs"/><use transform="matrix(0.022222222222222223,0,0,0.022222222222222223,12.022222222222222,0)" xlink:href="#bC"/><use transform="matrix(0.022222222222222223,0,0,0.022222222222222223,27.955555555555556,0)" xlink:href="#bs"/><use transform="matrix(0.022222222222222223,0,0,0.022222222222222223,39.977777777777774,0)" xlink:href="#bD"/></g><path d="M372-666c-81-13-161-21-161 67v92h155v78H211V0h-99v-429H18v-64l94-12v-82c0-111 53-167 160-167 37 0 71 6 100 18v70" id="bE"/><g id="x"><use transform="matrix(0.022222222222222223,0,0,0.022222222222222223,0,0)" xlink:href="#an"/><use transform="matrix(0.022222222222222223,0,0,0.022222222222222223,14.266666666666667,0)" xlink:href="#X"/><use transform="matrix(0.022222222222222223,0,0,0.022222222222222223,23.22222222222222,0)" xlink:href="#Y"/><use transform="matrix(0.022222222222222223,0,0,0.022222222222222223,31.733333333333334,0)" xlink:href="#au"/><use transform="matrix(0.022222222222222223,0,0,0.022222222222222223,37.4,0)" xlink:href="#bE"/><use transform="matrix(0.022222222222222223,0,0,0.022222222222222223,45.68888888888889,0)" xlink:href="#ab"/><use transform="matrix(0.022222222222222223,0,0,0.022222222222222223,57.400000000000006,0)" xlink:href="#W"/><use transform="matrix(0.022222222222222223,0,0,0.022222222222222223,67.86666666666667,0)" xlink:href="#Y"/><use transform="matrix(0.022222222222222223,0,0,0.022222222222222223,76.37777777777778,0)" xlink:href="#Z"/></g><linearGradient gradientUnits="userSpaceOnUse" id="y" x1="3051.23" y1="-1431.83" x2="3205.57" y2="-1586.12"><stop offset="0%" stop-color="#055f4e"/><stop offset="100%" stop-color="#56c0a7"/></linearGradient><path d="M678-522c93 0 144 56 143 150V0h-99v-344c0-62-20-97-79-98-49 0-98 15-147 45 2 129 0 265 1 397h-99v-344c0-62-20-97-79-98-51 0-99 15-146 44V0H74v-507h83l10 51c64-44 126-66 187-66 62 0 104 24 126 71 66-47 132-71 198-71" id="bF"/><path d="M36 0v-76l291-353H46v-78h391v75L142-78h298V0H36" id="bG"/><g id="z"><use transform="matrix(0.033333333333333326,0,0,0.033333333333333326,0,0)" xlink:href="#an"/><use transform="matrix(0.033333333333333326,0,0,0.033333333333333326,21.399999999999995,0)" xlink:href="#bF"/><use transform="matrix(0.033333333333333326,0,0,0.033333333333333326,51.16666666666666,0)" xlink:href="#ab"/><use transform="matrix(0.033333333333333326,0,0,0.033333333333333326,68.73333333333332,0)" xlink:href="#bG"/><use transform="matrix(0.033333333333333326,0,0,0.033333333333333326,84.26666666666665,0)" xlink:href="#aq"/><use transform="matrix(0.033333333333333326,0,0,0.033333333333333326,103.59999999999998,0)" xlink:href="#ac"/></g><path d="M169-355c-3 189 67 281 249 281 39 0 75-4 106-11v-203H369v-79h251v330C565-6 483 12 398 12 175 12 63-116 64-342c-1-228 115-361 339-361 70 0 134 14 193 41v80c-68-23-129-35-182-35-174 1-242 85-245 262" id="bH"/><g id="A"><use transform="matrix(0.033333333333333326,0,0,0.033333333333333326,0,0)" xlink:href="#ap"/><use transform="matrix(0.033333333333333326,0,0,0.033333333333333326,20.233333333333327,0)" xlink:href="#aq"/><use transform="matrix(0.033333333333333326,0,0,0.033333333333333326,39.566666666666656,0)" xlink:href="#ar"/><use transform="matrix(0.033333333333333326,0,0,0.033333333333333326,59.23333333333332,0)" xlink:href="#V"/><use transform="matrix(0.033333333333333326,0,0,0.033333333333333326,76.86666666666665,0)" xlink:href="#bH"/><use transform="matrix(0.033333333333333326,0,0,0.033333333333333326,99.93333333333331,0)" xlink:href="#at"/><use transform="matrix(0.033333333333333326,0,0,0.033333333333333326,119.09999999999995,0)" xlink:href="#X"/><use transform="matrix(0.033333333333333326,0,0,0.033333333333333326,131.5333333333333,0)" xlink:href="#at"/></g><g id="B"><use transform="matrix(0.033333333333333326,0,0,0.033333333333333326,0,0)" xlink:href="#U"/><use transform="matrix(0.033333333333333326,0,0,0.033333333333333326,18.999999999999996,0)" xlink:href="#V"/><use transform="matrix(0.033333333333333326,0,0,0.033333333333333326,36.633333333333326,0)" xlink:href="#W"/><use transform="matrix(0.033333333333333326,0,0,0.033333333333333326,51.999999999999986,0)" xlink:href="#at"/><use transform="matrix(0.033333333333333326,0,0,0.033333333333333326,71.16666666666663,0)" xlink:href="#X"/><use transform="matrix(0.033333333333333326,0,0,0.033333333333333326,83.59999999999997,0)" xlink:href="#au"/><use transform="matrix(0.033333333333333326,0,0,0.033333333333333326,92.09999999999997,0)" xlink:href="#Y"/><use transform="matrix(0.033333333333333326,0,0,0.033333333333333326,105.36666666666663,0)" xlink:href="#aR"/></g><linearGradient gradientUnits="userSpaceOnUse" id="C" x1="3371.85" y1="-1431.83" x2="3526.19" y2="-1586.12"><stop offset="0%" stop-color="#2e27ad"/><stop offset="100%" stop-color="#527fff"/></linearGradient><g id="D"><use transform="matrix(0.033333333333333326,0,0,0.033333333333333326,0,0)" xlink:href="#an"/><use transform="matrix(0.033333333333333326,0,0,0.033333333333333326,19.899999999999995,0)" xlink:href="#ao"/><use transform="matrix(0.033333333333333326,0,0,0.033333333333333326,50.86666666666666,0)" xlink:href="#U"/></g><g id="E"><use transform="matrix(0.033333333333333326,0,0,0.033333333333333326,0,0)" xlink:href="#ap"/><use transform="matrix(0.033333333333333326,0,0,0.033333333333333326,20.233333333333327,0)" xlink:href="#aq"/><use transform="matrix(0.033333333333333326,0,0,0.033333333333333326,39.566666666666656,0)" xlink:href="#ar"/><use transform="matrix(0.033333333333333326,0,0,0.033333333333333326,59.23333333333332,0)" xlink:href="#V"/><use transform="matrix(0.033333333333333326,0,0,0.033333333333333326,76.86666666666665,0)" xlink:href="#an"/><use transform="matrix(0.033333333333333326,0,0,0.033333333333333326,98.26666666666665,0)" xlink:href="#X"/><use transform="matrix(0.033333333333333326,0,0,0.033333333333333326,111.69999999999996,0)" xlink:href="#Y"/><use transform="matrix(0.033333333333333326,0,0,0.033333333333333326,124.46666666666663,0)" xlink:href="#au"/><use transform="matrix(0.033333333333333326,0,0,0.033333333333333326,132.9666666666666,0)" xlink:href="#bE"/><use transform="matrix(0.033333333333333326,0,0,0.033333333333333326,145.39999999999995,0)" xlink:href="#ab"/><use transform="matrix(0.033333333333333326,0,0,0.033333333333333326,162.9666666666666,0)" xlink:href="#W"/><use transform="matrix(0.033333333333333326,0,0,0.033333333333333326,178.66666666666663,0)" xlink:href="#Y"/></g><path fill="#008a0e" d="M219-103c92 0 173-61 120-137-52-48-184-80-221-141-18-30-31-63-31-104 5-175 184-257 369-213 32 8 61 21 86 36l-22 107c-73-41-285-74-285 50 0 73 92 84 145 111 72 37 126 79 126 175C506-61 381 14 217 17 131 17 61-1 6-36l24-109c61 28 124 42 189 42" id="bI"/><path fill="#008a0e" d="M159-166c5 58 27 78 89 79 47 0 97-13 148-40l36 81C367-4 293 17 208 17 91 18 24-52 28-170c6-199 120-349 319-358 82-2 145 44 142 122-7 160-170 213-330 240zm202-220c0-52-75-45-111-18-42 31-76 83-87 147 87-18 198-40 198-129" id="bJ"/><path fill="#008a0e" d="M548-511C484-345 371-148 271 0H138L48-511h149l38 382c63-119 119-246 168-382h145" id="bK"/><path fill="#008a0e" d="M237-423c42-56 111-110 205-87l-26 132c-82-16-136-1-188 51L163 0H21l99-511h115" id="bL"/><path fill="#008a0e" d="M312-681c1 50-45 93-96 91-46 0-75-21-75-65-1-50 45-93 96-91 46 0 75 21 75 65zM124-511h142L167 0H25" id="bM"/><path fill="#008a0e" d="M218-145c0 61 82 46 125 26l30 77C340-15 279 8 222 8 74 9 59-87 86-223l36-182H43l17-88 86-16 48-140h117l-27 138h141l-21 106H264c-13 70-46 196-46 260" id="bN"/><path fill="#008a0e" d="M19-122c40 17 107 32 162 32 67 3 99-34 71-76-65-52-186-74-186-192 0-166 229-208 363-132l-19 97c-31-17-86-28-133-28-55 0-103 39-65 75 61 58 186 72 186 191C398 29 140 50 0-24" id="bO"/><g id="F"><use transform="matrix(0.031111111111111103,0,0,0.031111111111111103,0,0)" xlink:href="#bI"/><use transform="matrix(0.031111111111111103,0,0,0.031111111111111103,17.297777777777775,0)" xlink:href="#bJ"/><use transform="matrix(0.031111111111111103,0,0,0.031111111111111103,32.75999999999999,0)" xlink:href="#bK"/><use transform="matrix(0.031111111111111103,0,0,0.031111111111111103,48.7511111111111,0)" xlink:href="#bJ"/><use transform="matrix(0.031111111111111103,0,0,0.031111111111111103,64.21333333333332,0)" xlink:href="#bL"/><use transform="matrix(0.031111111111111103,0,0,0.031111111111111103,76.71999999999998,0)" xlink:href="#bM"/><use transform="matrix(0.031111111111111103,0,0,0.031111111111111103,85.74222222222221,0)" xlink:href="#bN"/><use transform="matrix(0.031111111111111103,0,0,0.031111111111111103,98.52888888888887,0)" xlink:href="#bM"/><use transform="matrix(0.031111111111111103,0,0,0.031111111111111103,107.5511111111111,0)" xlink:href="#bJ"/><use transform="matrix(0.031111111111111103,0,0,0.031111111111111103,123.01333333333332,0)" xlink:href="#bO"/></g><path fill="#008a0e" d="M72-289l23-114 473-189-25 132-331 118 284 117-24 124" id="bP"/><use transform="matrix(0.031111111111111103,0,0,0.031111111111111103,0,0)" xlink:href="#bP" id="G"/><path fill="#008a0e" d="M591 0l96-492-215 321H352l-90-324L165 0H37l135-693h159l106 389 261-389h156L719 0H591" id="bQ"/><path fill="#008a0e" d="M167 15C-1 20 10-211 68-332c54-114 180-234 344-179l44-229h142L453 0H338v-89C300-38 242 11 167 15zm226-430c-153-27-215 106-221 247-3 81 62 89 110 48 22-16 44-40 67-69" id="bR"/><path fill="#008a0e" d="M187-146c-3 65 66 55 104 26 23-15 46-36 69-63l65-328h142L468 0H353v-89C313-36 255 12 176 15 38 20 32-110 57-239l53-272h142c-20 116-53 245-65 365" id="bS"/><path fill="#008a0e" d="M725-526c138-2 147 120 121 254L793 0H651c20-117 54-248 66-369 0-32-13-49-45-49-35 0-78 25-129 75-18 114-44 231-65 343H336c20-117 57-248 66-369 5-65-68-56-106-25-23 16-45 38-68 66L163 0H21l99-511h115l2 86c39-50 97-97 173-101 72 0 120 36 132 97 42-50 104-94 183-97" id="bT"/><g id="H"><use transform="matrix(0.031111111111111103,0,0,0.031111111111111103,0,0)" xlink:href="#bQ"/><use transform="matrix(0.031111111111111103,0,0,0.031111111111111103,26.693333333333328,0)" xlink:href="#bJ"/><use transform="matrix(0.031111111111111103,0,0,0.031111111111111103,42.155555555555544,0)" xlink:href="#bR"/><use transform="matrix(0.031111111111111103,0,0,0.031111111111111103,59.982222222222205,0)" xlink:href="#bM"/><use transform="matrix(0.031111111111111103,0,0,0.031111111111111103,69.00444444444443,0)" xlink:href="#bS"/><use transform="matrix(0.031111111111111103,0,0,0.031111111111111103,87.26666666666665,0)" xlink:href="#bT"/></g><path d="M619-501c-3 165-127 245-298 248h-93L179 0H37l135-693h225c132-2 225 65 222 192zm-144 9c4-94-87-95-183-91l-43 220h72c89 1 154-45 154-129" id="bU"/><path d="M187-146c-3 65 66 55 104 26 23-15 46-36 69-63l65-328h142L468 0H353v-89C313-36 255 12 176 15 38 20 32-110 57-239l53-272h142c-20 116-53 245-65 365" id="bV"/><path d="M544-348C537-115 381 58 125 4 88-3 55-13 26-25l139-715h142l-58 299c39-45 90-83 163-85 95 2 133 75 132 178zm-144 20c0-47-12-84-51-87-35 0-76 30-123 89L181-95c149 25 213-98 219-233" id="bW"/><path d="M312-681c1 50-45 93-96 91-46 0-75-21-75-65-1-50 45-93 96-91 46 0 75 21 75 65zM124-511h142L167 0H25" id="bX"/><path d="M19-122c40 17 107 32 162 32 67 3 99-34 71-76-65-52-186-74-186-192 0-166 229-208 363-132l-19 97c-31-17-86-28-133-28-55 0-103 39-65 75 61 58 186 72 186 191C398 29 140 50 0-24" id="bY"/><path d="M417-526c88-1 143 49 139 137-6 125-48 269-68 389H346c20-117 66-249 66-370 0-65-72-56-112-24-25 16-49 39-74 68L163 0H21l144-740h142l-59 304c40-45 96-87 169-90" id="bZ"/><g id="I"><use transform="matrix(0.028888888888888888,0,0,0.028888888888888888,0,0)" xlink:href="#bU"/><use transform="matrix(0.028888888888888888,0,0,0.028888888888888888,17.737777777777776,0)" xlink:href="#bV"/><use transform="matrix(0.028888888888888888,0,0,0.028888888888888888,34.69555555555556,0)" xlink:href="#bW"/><use transform="matrix(0.028888888888888888,0,0,0.028888888888888888,51.22,0)" xlink:href="#aJ"/><use transform="matrix(0.028888888888888888,0,0,0.028888888888888888,60.52222222222222,0)" xlink:href="#bX"/><use transform="matrix(0.028888888888888888,0,0,0.028888888888888888,68.89999999999999,0)" xlink:href="#bY"/><use transform="matrix(0.028888888888888888,0,0,0.028888888888888888,81.75555555555555,0)" xlink:href="#bZ"/></g><path d="M21 0l144-740h140l-85 436 189-207h176L344-270 513 0H353L208-243 161 0H21" id="ca"/><path d="M174-9C11-4 13-225 76-342s196-220 378-173c36 7 70 17 101 29L472-62c-33 173-134 278-329 280-55 0-106-12-154-36L10 79c90 37 198 42 260-13 35-30 59-101 70-172-38 48-93 94-166 97zm226-406c-144-26-214 93-221 223-2 84 64 91 112 47 23-18 46-44 71-77" id="cb"/><g id="J"><use transform="matrix(0.028888888888888888,0,0,0.028888888888888888,0,0)" xlink:href="#bU"/><use transform="matrix(0.028888888888888888,0,0,0.028888888888888888,17.448888888888888,0)" xlink:href="#S"/><use transform="matrix(0.028888888888888888,0,0,0.028888888888888888,34.002222222222215,0)" xlink:href="#R"/><use transform="matrix(0.028888888888888888,0,0,0.028888888888888888,47.14666666666666,0)" xlink:href="#ca"/><use transform="matrix(0.028888888888888888,0,0,0.028888888888888888,62.94888888888889,0)" xlink:href="#S"/><use transform="matrix(0.028888888888888888,0,0,0.028888888888888888,79.50222222222222,0)" xlink:href="#cb"/><use transform="matrix(0.028888888888888888,0,0,0.028888888888888888,96.25777777777778,0)" xlink:href="#aL"/></g><path d="M177 0L74-693h158l52 546 261-546h160L335 0H177" id="cc"/><path d="M237-423c42-56 111-110 205-87l-26 132c-82-16-136-1-188 51L163 0H21l99-511h115" id="cd"/><g id="K"><use transform="matrix(0.028888888888888888,0,0,0.028888888888888888,0,0)" xlink:href="#cc"/><use transform="matrix(0.028888888888888888,0,0,0.028888888888888888,17.304444444444442,0)" xlink:href="#aL"/><use transform="matrix(0.028888888888888888,0,0,0.028888888888888888,31.66222222222222,0)" xlink:href="#cd"/><use transform="matrix(0.028888888888888888,0,0,0.028888888888888888,43.275555555555556,0)" xlink:href="#bY"/><use transform="matrix(0.028888888888888888,0,0,0.028888888888888888,56.13111111111111,0)" xlink:href="#bX"/><use transform="matrix(0.028888888888888888,0,0,0.028888888888888888,64.50888888888889,0)" xlink:href="#aK"/><use transform="matrix(0.028888888888888888,0,0,0.028888888888888888,80.65777777777778,0)" xlink:href="#T"/></g><g id="L"><use transform="matrix(0.033333333333333326,0,0,0.033333333333333326,0,0)" xlink:href="#U"/><use transform="matrix(0.033333333333333326,0,0,0.033333333333333326,18.999999999999996,0)" xlink:href="#au"/><use transform="matrix(0.033333333333333326,0,0,0.033333333333333326,27.499999999999993,0)" xlink:href="#bF"/><use transform="matrix(0.033333333333333326,0,0,0.033333333333333326,57.26666666666665,0)" xlink:href="#aN"/><use transform="matrix(0.033333333333333326,0,0,0.033333333333333326,76.99999999999997,0)" xlink:href="#av"/><use transform="matrix(0.033333333333333326,0,0,0.033333333333333326,86.49999999999997,0)" xlink:href="#V"/></g><path d="M178-551V0H84v-693h111l341 554v-554h94V0H518" id="ce"/><g id="M"><use transform="matrix(0.033333333333333326,0,0,0.033333333333333326,0,0)" xlink:href="#ce"/><use transform="matrix(0.033333333333333326,0,0,0.033333333333333326,23.799999999999994,0)" xlink:href="#aq"/><use transform="matrix(0.033333333333333326,0,0,0.033333333333333326,43.133333333333326,0)" xlink:href="#Y"/><use transform="matrix(0.033333333333333326,0,0,0.033333333333333326,55.9,0)" xlink:href="#au"/><use transform="matrix(0.033333333333333326,0,0,0.033333333333333326,64.39999999999999,0)" xlink:href="#bE"/><use transform="matrix(0.033333333333333326,0,0,0.033333333333333326,76.83333333333331,0)" xlink:href="#au"/><use transform="matrix(0.033333333333333326,0,0,0.033333333333333326,85.33333333333331,0)" xlink:href="#W"/><use transform="matrix(0.033333333333333326,0,0,0.033333333333333326,100.69999999999997,0)" xlink:href="#ab"/><use transform="matrix(0.033333333333333326,0,0,0.033333333333333326,118.26666666666664,0)" xlink:href="#Y"/><use transform="matrix(0.033333333333333326,0,0,0.033333333333333326,131.0333333333333,0)" xlink:href="#au"/><use transform="matrix(0.033333333333333326,0,0,0.033333333333333326,139.5333333333333,0)" xlink:href="#aq"/><use transform="matrix(0.033333333333333326,0,0,0.033333333333333326,158.86666666666662,0)" xlink:href="#ac"/></g><g id="N"><use transform="matrix(0.033333333333333326,0,0,0.033333333333333326,0,0)" xlink:href="#U"/><use transform="matrix(0.033333333333333326,0,0,0.033333333333333326,18.999999999999996,0)" xlink:href="#V"/><use transform="matrix(0.033333333333333326,0,0,0.033333333333333326,36.633333333333326,0)" xlink:href="#X"/><use transform="matrix(0.033333333333333326,0,0,0.033333333333333326,50.23333333333332,0)" xlink:href="#aX"/><use transform="matrix(0.033333333333333326,0,0,0.033333333333333326,67.23333333333332,0)" xlink:href="#au"/><use transform="matrix(0.033333333333333326,0,0,0.033333333333333326,75.73333333333332,0)" xlink:href="#W"/><use transform="matrix(0.033333333333333326,0,0,0.033333333333333326,90.59999999999998,0)" xlink:href="#V"/></g><path d="M84 0v-693h431v82H186v213h276v82H186v234h329V0H84" id="cf"/><g id="O"><use transform="matrix(0.033333333333333326,0,0,0.033333333333333326,0,0)" xlink:href="#cf"/><use transform="matrix(0.033333333333333326,0,0,0.033333333333333326,18.699999999999996,0)" xlink:href="#bF"/><use transform="matrix(0.033333333333333326,0,0,0.033333333333333326,48.466666666666654,0)" xlink:href="#ab"/><use transform="matrix(0.033333333333333326,0,0,0.033333333333333326,66.03333333333332,0)" xlink:href="#au"/><use transform="matrix(0.033333333333333326,0,0,0.033333333333333326,74.53333333333332,0)" xlink:href="#av"/></g><path d="M52 0l78-405H53l17-88 81-15c19-161 100-271 285-240 18 4 33 8 46 14l-19 99c-78-12-152-13-157 62l-12 62h143l-21 106H273L194 0H52" id="cg"/><path d="M167 15C-1 20 10-211 68-332c54-114 180-234 344-179l44-229h142L453 0H338v-89C300-38 242 11 167 15zm226-430c-153-27-215 106-221 247-3 81 62 89 110 48 22-16 44-40 67-69" id="ch"/><g id="P"><use transform="matrix(0.028888888888888888,0,0,0.028888888888888888,0,0)" xlink:href="#cg"/><use transform="matrix(0.028888888888888888,0,0,0.028888888888888888,11.468888888888888,0)" xlink:href="#bX"/><use transform="matrix(0.028888888888888888,0,0,0.028888888888888888,19.846666666666664,0)" xlink:href="#T"/><use transform="matrix(0.028888888888888888,0,0,0.028888888888888888,37.208888888888886,0)" xlink:href="#ch"/><use transform="matrix(0.028888888888888888,0,0,0.028888888888888888,53.76222222222222,0)" xlink:href="#bX"/><use transform="matrix(0.028888888888888888,0,0,0.028888888888888888,62.14,0)" xlink:href="#T"/><use transform="matrix(0.028888888888888888,0,0,0.028888888888888888,79.50222222222223,0)" xlink:href="#cb"/><use transform="matrix(0.028888888888888888,0,0,0.028888888888888888,96.25777777777779,0)" xlink:href="#bY"/></g></defs></g></svg>